M48
INCH,TZ
T1C0.0157
T2C0.0315
T3C0.0453
%
G90
G05
T1
X2.12Y-3.09
X2.12Y-3.14
X2.12Y-3.2
X2.12Y-3.25
X2.17Y-3.09
X2.17Y-3.14
X2.17Y-3.2
X2.17Y-3.25
X2.23Y-3.09
X2.23Y-3.14
X2.23Y-3.2
X2.23Y-3.25
X2.29Y-3.09
X2.29Y-3.14
X2.29Y-3.2
X2.29Y-3.25
X2.4396Y-3.0645
X2.44Y-3.24
X2.56Y-2.93
X2.77Y-2.97
X2.81Y-2.74
X2.86Y-2.92
X2.91Y-3.1
X2.91Y-3.1
X3.03Y-2.92
X3.07Y-2.9
X3.08Y-2.78
X3.23Y-2.99
T2
X2.7467Y-3.1461
X2.7467Y-3.2445
T3
X2.16Y-2.83
X2.26Y-2.83
X3.1601Y-2.8641
X3.1601Y-2.9641
X3.1601Y-3.0641
X3.1601Y-3.1641
T0
M30
