G04 #@! TF.GenerationSoftware,KiCad,Pcbnew,(5.0.0)*
G04 #@! TF.CreationDate,2018-12-07T10:27:40+01:00*
G04 #@! TF.ProjectId,SoNavi,536F4E6176692E6B696361645F706362,rev?*
G04 #@! TF.SameCoordinates,Original*
G04 #@! TF.FileFunction,Copper,L1,Top,Signal*
G04 #@! TF.FilePolarity,Positive*
%FSLAX46Y46*%
G04 Gerber Fmt 4.6, Leading zero omitted, Abs format (unit mm)*
G04 Created by KiCad (PCBNEW (5.0.0)) date 12/07/18 10:27:40*
%MOMM*%
%LPD*%
G01*
G04 APERTURE LIST*
G04 #@! TA.AperFunction,Conductor*
%ADD10C,0.300000*%
G04 #@! TD*
G04 #@! TA.AperFunction,SMDPad,CuDef*
%ADD11C,0.975000*%
G04 #@! TD*
G04 #@! TA.AperFunction,SMDPad,CuDef*
%ADD12R,0.800000X0.900000*%
G04 #@! TD*
G04 #@! TA.AperFunction,SMDPad,CuDef*
%ADD13R,0.900000X0.800000*%
G04 #@! TD*
G04 #@! TA.AperFunction,SMDPad,CuDef*
%ADD14R,2.200000X1.200000*%
G04 #@! TD*
G04 #@! TA.AperFunction,SMDPad,CuDef*
%ADD15R,6.400000X5.800000*%
G04 #@! TD*
G04 #@! TA.AperFunction,SMDPad,CuDef*
%ADD16C,1.250000*%
G04 #@! TD*
G04 #@! TA.AperFunction,SMDPad,CuDef*
%ADD17R,3.480000X1.846667*%
G04 #@! TD*
G04 #@! TA.AperFunction,ComponentPad*
%ADD18R,1.725000X1.725000*%
G04 #@! TD*
G04 #@! TA.AperFunction,ComponentPad*
%ADD19C,1.725000*%
G04 #@! TD*
G04 #@! TA.AperFunction,ComponentPad*
%ADD20R,1.600000X1.600000*%
G04 #@! TD*
G04 #@! TA.AperFunction,ComponentPad*
%ADD21C,1.600000*%
G04 #@! TD*
G04 #@! TA.AperFunction,SMDPad,CuDef*
%ADD22R,1.200000X0.900000*%
G04 #@! TD*
G04 #@! TA.AperFunction,SMDPad,CuDef*
%ADD23R,0.980000X0.870000*%
G04 #@! TD*
G04 #@! TA.AperFunction,ViaPad*
%ADD24C,0.600000*%
G04 #@! TD*
G04 #@! TA.AperFunction,Conductor*
%ADD25C,0.250000*%
G04 #@! TD*
G04 #@! TA.AperFunction,Conductor*
%ADD26C,0.350000*%
G04 #@! TD*
G04 #@! TA.AperFunction,Conductor*
%ADD27C,0.254000*%
G04 #@! TD*
G04 APERTURE END LIST*
D10*
G04 #@! TO.N,Net-(Q1-Pad1)*
G04 #@! TO.C,R2*
G36*
X77950142Y-79523674D02*
X77973803Y-79527184D01*
X77997007Y-79532996D01*
X78019529Y-79541054D01*
X78041153Y-79551282D01*
X78061670Y-79563579D01*
X78080883Y-79577829D01*
X78098607Y-79593893D01*
X78114671Y-79611617D01*
X78128921Y-79630830D01*
X78141218Y-79651347D01*
X78151446Y-79672971D01*
X78159504Y-79695493D01*
X78165316Y-79718697D01*
X78168826Y-79742358D01*
X78170000Y-79766250D01*
X78170000Y-80253750D01*
X78168826Y-80277642D01*
X78165316Y-80301303D01*
X78159504Y-80324507D01*
X78151446Y-80347029D01*
X78141218Y-80368653D01*
X78128921Y-80389170D01*
X78114671Y-80408383D01*
X78098607Y-80426107D01*
X78080883Y-80442171D01*
X78061670Y-80456421D01*
X78041153Y-80468718D01*
X78019529Y-80478946D01*
X77997007Y-80487004D01*
X77973803Y-80492816D01*
X77950142Y-80496326D01*
X77926250Y-80497500D01*
X77013750Y-80497500D01*
X76989858Y-80496326D01*
X76966197Y-80492816D01*
X76942993Y-80487004D01*
X76920471Y-80478946D01*
X76898847Y-80468718D01*
X76878330Y-80456421D01*
X76859117Y-80442171D01*
X76841393Y-80426107D01*
X76825329Y-80408383D01*
X76811079Y-80389170D01*
X76798782Y-80368653D01*
X76788554Y-80347029D01*
X76780496Y-80324507D01*
X76774684Y-80301303D01*
X76771174Y-80277642D01*
X76770000Y-80253750D01*
X76770000Y-79766250D01*
X76771174Y-79742358D01*
X76774684Y-79718697D01*
X76780496Y-79695493D01*
X76788554Y-79672971D01*
X76798782Y-79651347D01*
X76811079Y-79630830D01*
X76825329Y-79611617D01*
X76841393Y-79593893D01*
X76859117Y-79577829D01*
X76878330Y-79563579D01*
X76898847Y-79551282D01*
X76920471Y-79541054D01*
X76942993Y-79532996D01*
X76966197Y-79527184D01*
X76989858Y-79523674D01*
X77013750Y-79522500D01*
X77926250Y-79522500D01*
X77950142Y-79523674D01*
X77950142Y-79523674D01*
G37*
D11*
G04 #@! TD*
G04 #@! TO.P,R2,2*
G04 #@! TO.N,Net-(Q1-Pad1)*
X77470000Y-80010000D03*
D10*
G04 #@! TO.N,/TX*
G04 #@! TO.C,R2*
G36*
X77950142Y-81398674D02*
X77973803Y-81402184D01*
X77997007Y-81407996D01*
X78019529Y-81416054D01*
X78041153Y-81426282D01*
X78061670Y-81438579D01*
X78080883Y-81452829D01*
X78098607Y-81468893D01*
X78114671Y-81486617D01*
X78128921Y-81505830D01*
X78141218Y-81526347D01*
X78151446Y-81547971D01*
X78159504Y-81570493D01*
X78165316Y-81593697D01*
X78168826Y-81617358D01*
X78170000Y-81641250D01*
X78170000Y-82128750D01*
X78168826Y-82152642D01*
X78165316Y-82176303D01*
X78159504Y-82199507D01*
X78151446Y-82222029D01*
X78141218Y-82243653D01*
X78128921Y-82264170D01*
X78114671Y-82283383D01*
X78098607Y-82301107D01*
X78080883Y-82317171D01*
X78061670Y-82331421D01*
X78041153Y-82343718D01*
X78019529Y-82353946D01*
X77997007Y-82362004D01*
X77973803Y-82367816D01*
X77950142Y-82371326D01*
X77926250Y-82372500D01*
X77013750Y-82372500D01*
X76989858Y-82371326D01*
X76966197Y-82367816D01*
X76942993Y-82362004D01*
X76920471Y-82353946D01*
X76898847Y-82343718D01*
X76878330Y-82331421D01*
X76859117Y-82317171D01*
X76841393Y-82301107D01*
X76825329Y-82283383D01*
X76811079Y-82264170D01*
X76798782Y-82243653D01*
X76788554Y-82222029D01*
X76780496Y-82199507D01*
X76774684Y-82176303D01*
X76771174Y-82152642D01*
X76770000Y-82128750D01*
X76770000Y-81641250D01*
X76771174Y-81617358D01*
X76774684Y-81593697D01*
X76780496Y-81570493D01*
X76788554Y-81547971D01*
X76798782Y-81526347D01*
X76811079Y-81505830D01*
X76825329Y-81486617D01*
X76841393Y-81468893D01*
X76859117Y-81452829D01*
X76878330Y-81438579D01*
X76898847Y-81426282D01*
X76920471Y-81416054D01*
X76942993Y-81407996D01*
X76966197Y-81402184D01*
X76989858Y-81398674D01*
X77013750Y-81397500D01*
X77926250Y-81397500D01*
X77950142Y-81398674D01*
X77950142Y-81398674D01*
G37*
D11*
G04 #@! TD*
G04 #@! TO.P,R2,1*
G04 #@! TO.N,/TX*
X77470000Y-81885000D03*
D12*
G04 #@! TO.P,Q1,1*
G04 #@! TO.N,Net-(Q1-Pad1)*
X74864000Y-75454000D03*
G04 #@! TO.P,Q1,2*
G04 #@! TO.N,GND*
X72964000Y-75454000D03*
G04 #@! TO.P,Q1,3*
G04 #@! TO.N,/RXD*
X73914000Y-77454000D03*
G04 #@! TD*
D13*
G04 #@! TO.P,Q2,3*
G04 #@! TO.N,/RX*
X72316162Y-71447928D03*
G04 #@! TO.P,Q2,2*
G04 #@! TO.N,GND*
X74316162Y-70497928D03*
G04 #@! TO.P,Q2,1*
G04 #@! TO.N,Net-(Q2-Pad1)*
X74316162Y-72397928D03*
G04 #@! TD*
D10*
G04 #@! TO.N,/DTR*
G04 #@! TO.C,R1*
G36*
X74394142Y-81985174D02*
X74417803Y-81988684D01*
X74441007Y-81994496D01*
X74463529Y-82002554D01*
X74485153Y-82012782D01*
X74505670Y-82025079D01*
X74524883Y-82039329D01*
X74542607Y-82055393D01*
X74558671Y-82073117D01*
X74572921Y-82092330D01*
X74585218Y-82112847D01*
X74595446Y-82134471D01*
X74603504Y-82156993D01*
X74609316Y-82180197D01*
X74612826Y-82203858D01*
X74614000Y-82227750D01*
X74614000Y-82715250D01*
X74612826Y-82739142D01*
X74609316Y-82762803D01*
X74603504Y-82786007D01*
X74595446Y-82808529D01*
X74585218Y-82830153D01*
X74572921Y-82850670D01*
X74558671Y-82869883D01*
X74542607Y-82887607D01*
X74524883Y-82903671D01*
X74505670Y-82917921D01*
X74485153Y-82930218D01*
X74463529Y-82940446D01*
X74441007Y-82948504D01*
X74417803Y-82954316D01*
X74394142Y-82957826D01*
X74370250Y-82959000D01*
X73457750Y-82959000D01*
X73433858Y-82957826D01*
X73410197Y-82954316D01*
X73386993Y-82948504D01*
X73364471Y-82940446D01*
X73342847Y-82930218D01*
X73322330Y-82917921D01*
X73303117Y-82903671D01*
X73285393Y-82887607D01*
X73269329Y-82869883D01*
X73255079Y-82850670D01*
X73242782Y-82830153D01*
X73232554Y-82808529D01*
X73224496Y-82786007D01*
X73218684Y-82762803D01*
X73215174Y-82739142D01*
X73214000Y-82715250D01*
X73214000Y-82227750D01*
X73215174Y-82203858D01*
X73218684Y-82180197D01*
X73224496Y-82156993D01*
X73232554Y-82134471D01*
X73242782Y-82112847D01*
X73255079Y-82092330D01*
X73269329Y-82073117D01*
X73285393Y-82055393D01*
X73303117Y-82039329D01*
X73322330Y-82025079D01*
X73342847Y-82012782D01*
X73364471Y-82002554D01*
X73386993Y-81994496D01*
X73410197Y-81988684D01*
X73433858Y-81985174D01*
X73457750Y-81984000D01*
X74370250Y-81984000D01*
X74394142Y-81985174D01*
X74394142Y-81985174D01*
G37*
D11*
G04 #@! TD*
G04 #@! TO.P,R1,1*
G04 #@! TO.N,/DTR*
X73914000Y-82471500D03*
D10*
G04 #@! TO.N,/RXD*
G04 #@! TO.C,R1*
G36*
X74394142Y-80110174D02*
X74417803Y-80113684D01*
X74441007Y-80119496D01*
X74463529Y-80127554D01*
X74485153Y-80137782D01*
X74505670Y-80150079D01*
X74524883Y-80164329D01*
X74542607Y-80180393D01*
X74558671Y-80198117D01*
X74572921Y-80217330D01*
X74585218Y-80237847D01*
X74595446Y-80259471D01*
X74603504Y-80281993D01*
X74609316Y-80305197D01*
X74612826Y-80328858D01*
X74614000Y-80352750D01*
X74614000Y-80840250D01*
X74612826Y-80864142D01*
X74609316Y-80887803D01*
X74603504Y-80911007D01*
X74595446Y-80933529D01*
X74585218Y-80955153D01*
X74572921Y-80975670D01*
X74558671Y-80994883D01*
X74542607Y-81012607D01*
X74524883Y-81028671D01*
X74505670Y-81042921D01*
X74485153Y-81055218D01*
X74463529Y-81065446D01*
X74441007Y-81073504D01*
X74417803Y-81079316D01*
X74394142Y-81082826D01*
X74370250Y-81084000D01*
X73457750Y-81084000D01*
X73433858Y-81082826D01*
X73410197Y-81079316D01*
X73386993Y-81073504D01*
X73364471Y-81065446D01*
X73342847Y-81055218D01*
X73322330Y-81042921D01*
X73303117Y-81028671D01*
X73285393Y-81012607D01*
X73269329Y-80994883D01*
X73255079Y-80975670D01*
X73242782Y-80955153D01*
X73232554Y-80933529D01*
X73224496Y-80911007D01*
X73218684Y-80887803D01*
X73215174Y-80864142D01*
X73214000Y-80840250D01*
X73214000Y-80352750D01*
X73215174Y-80328858D01*
X73218684Y-80305197D01*
X73224496Y-80281993D01*
X73232554Y-80259471D01*
X73242782Y-80237847D01*
X73255079Y-80217330D01*
X73269329Y-80198117D01*
X73285393Y-80180393D01*
X73303117Y-80164329D01*
X73322330Y-80150079D01*
X73342847Y-80137782D01*
X73364471Y-80127554D01*
X73386993Y-80119496D01*
X73410197Y-80113684D01*
X73433858Y-80110174D01*
X73457750Y-80109000D01*
X74370250Y-80109000D01*
X74394142Y-80110174D01*
X74394142Y-80110174D01*
G37*
D11*
G04 #@! TD*
G04 #@! TO.P,R1,2*
G04 #@! TO.N,/RXD*
X73914000Y-80596500D03*
D10*
G04 #@! TO.N,Net-(Q2-Pad1)*
G04 #@! TO.C,R3*
G36*
X77188142Y-71825174D02*
X77211803Y-71828684D01*
X77235007Y-71834496D01*
X77257529Y-71842554D01*
X77279153Y-71852782D01*
X77299670Y-71865079D01*
X77318883Y-71879329D01*
X77336607Y-71895393D01*
X77352671Y-71913117D01*
X77366921Y-71932330D01*
X77379218Y-71952847D01*
X77389446Y-71974471D01*
X77397504Y-71996993D01*
X77403316Y-72020197D01*
X77406826Y-72043858D01*
X77408000Y-72067750D01*
X77408000Y-72555250D01*
X77406826Y-72579142D01*
X77403316Y-72602803D01*
X77397504Y-72626007D01*
X77389446Y-72648529D01*
X77379218Y-72670153D01*
X77366921Y-72690670D01*
X77352671Y-72709883D01*
X77336607Y-72727607D01*
X77318883Y-72743671D01*
X77299670Y-72757921D01*
X77279153Y-72770218D01*
X77257529Y-72780446D01*
X77235007Y-72788504D01*
X77211803Y-72794316D01*
X77188142Y-72797826D01*
X77164250Y-72799000D01*
X76251750Y-72799000D01*
X76227858Y-72797826D01*
X76204197Y-72794316D01*
X76180993Y-72788504D01*
X76158471Y-72780446D01*
X76136847Y-72770218D01*
X76116330Y-72757921D01*
X76097117Y-72743671D01*
X76079393Y-72727607D01*
X76063329Y-72709883D01*
X76049079Y-72690670D01*
X76036782Y-72670153D01*
X76026554Y-72648529D01*
X76018496Y-72626007D01*
X76012684Y-72602803D01*
X76009174Y-72579142D01*
X76008000Y-72555250D01*
X76008000Y-72067750D01*
X76009174Y-72043858D01*
X76012684Y-72020197D01*
X76018496Y-71996993D01*
X76026554Y-71974471D01*
X76036782Y-71952847D01*
X76049079Y-71932330D01*
X76063329Y-71913117D01*
X76079393Y-71895393D01*
X76097117Y-71879329D01*
X76116330Y-71865079D01*
X76136847Y-71852782D01*
X76158471Y-71842554D01*
X76180993Y-71834496D01*
X76204197Y-71828684D01*
X76227858Y-71825174D01*
X76251750Y-71824000D01*
X77164250Y-71824000D01*
X77188142Y-71825174D01*
X77188142Y-71825174D01*
G37*
D11*
G04 #@! TD*
G04 #@! TO.P,R3,1*
G04 #@! TO.N,Net-(Q2-Pad1)*
X76708000Y-72311500D03*
D10*
G04 #@! TO.N,/TXD*
G04 #@! TO.C,R3*
G36*
X77188142Y-69950174D02*
X77211803Y-69953684D01*
X77235007Y-69959496D01*
X77257529Y-69967554D01*
X77279153Y-69977782D01*
X77299670Y-69990079D01*
X77318883Y-70004329D01*
X77336607Y-70020393D01*
X77352671Y-70038117D01*
X77366921Y-70057330D01*
X77379218Y-70077847D01*
X77389446Y-70099471D01*
X77397504Y-70121993D01*
X77403316Y-70145197D01*
X77406826Y-70168858D01*
X77408000Y-70192750D01*
X77408000Y-70680250D01*
X77406826Y-70704142D01*
X77403316Y-70727803D01*
X77397504Y-70751007D01*
X77389446Y-70773529D01*
X77379218Y-70795153D01*
X77366921Y-70815670D01*
X77352671Y-70834883D01*
X77336607Y-70852607D01*
X77318883Y-70868671D01*
X77299670Y-70882921D01*
X77279153Y-70895218D01*
X77257529Y-70905446D01*
X77235007Y-70913504D01*
X77211803Y-70919316D01*
X77188142Y-70922826D01*
X77164250Y-70924000D01*
X76251750Y-70924000D01*
X76227858Y-70922826D01*
X76204197Y-70919316D01*
X76180993Y-70913504D01*
X76158471Y-70905446D01*
X76136847Y-70895218D01*
X76116330Y-70882921D01*
X76097117Y-70868671D01*
X76079393Y-70852607D01*
X76063329Y-70834883D01*
X76049079Y-70815670D01*
X76036782Y-70795153D01*
X76026554Y-70773529D01*
X76018496Y-70751007D01*
X76012684Y-70727803D01*
X76009174Y-70704142D01*
X76008000Y-70680250D01*
X76008000Y-70192750D01*
X76009174Y-70168858D01*
X76012684Y-70145197D01*
X76018496Y-70121993D01*
X76026554Y-70099471D01*
X76036782Y-70077847D01*
X76049079Y-70057330D01*
X76063329Y-70038117D01*
X76079393Y-70020393D01*
X76097117Y-70004329D01*
X76116330Y-69990079D01*
X76136847Y-69977782D01*
X76158471Y-69967554D01*
X76180993Y-69959496D01*
X76204197Y-69953684D01*
X76227858Y-69950174D01*
X76251750Y-69949000D01*
X77164250Y-69949000D01*
X77188142Y-69950174D01*
X77188142Y-69950174D01*
G37*
D11*
G04 #@! TD*
G04 #@! TO.P,R3,2*
G04 #@! TO.N,/TXD*
X76708000Y-70436500D03*
D10*
G04 #@! TO.N,+5V*
G04 #@! TO.C,R4*
G36*
X69609642Y-73469174D02*
X69633303Y-73472684D01*
X69656507Y-73478496D01*
X69679029Y-73486554D01*
X69700653Y-73496782D01*
X69721170Y-73509079D01*
X69740383Y-73523329D01*
X69758107Y-73539393D01*
X69774171Y-73557117D01*
X69788421Y-73576330D01*
X69800718Y-73596847D01*
X69810946Y-73618471D01*
X69819004Y-73640993D01*
X69824816Y-73664197D01*
X69828326Y-73687858D01*
X69829500Y-73711750D01*
X69829500Y-74624250D01*
X69828326Y-74648142D01*
X69824816Y-74671803D01*
X69819004Y-74695007D01*
X69810946Y-74717529D01*
X69800718Y-74739153D01*
X69788421Y-74759670D01*
X69774171Y-74778883D01*
X69758107Y-74796607D01*
X69740383Y-74812671D01*
X69721170Y-74826921D01*
X69700653Y-74839218D01*
X69679029Y-74849446D01*
X69656507Y-74857504D01*
X69633303Y-74863316D01*
X69609642Y-74866826D01*
X69585750Y-74868000D01*
X69098250Y-74868000D01*
X69074358Y-74866826D01*
X69050697Y-74863316D01*
X69027493Y-74857504D01*
X69004971Y-74849446D01*
X68983347Y-74839218D01*
X68962830Y-74826921D01*
X68943617Y-74812671D01*
X68925893Y-74796607D01*
X68909829Y-74778883D01*
X68895579Y-74759670D01*
X68883282Y-74739153D01*
X68873054Y-74717529D01*
X68864996Y-74695007D01*
X68859184Y-74671803D01*
X68855674Y-74648142D01*
X68854500Y-74624250D01*
X68854500Y-73711750D01*
X68855674Y-73687858D01*
X68859184Y-73664197D01*
X68864996Y-73640993D01*
X68873054Y-73618471D01*
X68883282Y-73596847D01*
X68895579Y-73576330D01*
X68909829Y-73557117D01*
X68925893Y-73539393D01*
X68943617Y-73523329D01*
X68962830Y-73509079D01*
X68983347Y-73496782D01*
X69004971Y-73486554D01*
X69027493Y-73478496D01*
X69050697Y-73472684D01*
X69074358Y-73469174D01*
X69098250Y-73468000D01*
X69585750Y-73468000D01*
X69609642Y-73469174D01*
X69609642Y-73469174D01*
G37*
D11*
G04 #@! TD*
G04 #@! TO.P,R4,2*
G04 #@! TO.N,+5V*
X69342000Y-74168000D03*
D10*
G04 #@! TO.N,/RX*
G04 #@! TO.C,R4*
G36*
X67734642Y-73469174D02*
X67758303Y-73472684D01*
X67781507Y-73478496D01*
X67804029Y-73486554D01*
X67825653Y-73496782D01*
X67846170Y-73509079D01*
X67865383Y-73523329D01*
X67883107Y-73539393D01*
X67899171Y-73557117D01*
X67913421Y-73576330D01*
X67925718Y-73596847D01*
X67935946Y-73618471D01*
X67944004Y-73640993D01*
X67949816Y-73664197D01*
X67953326Y-73687858D01*
X67954500Y-73711750D01*
X67954500Y-74624250D01*
X67953326Y-74648142D01*
X67949816Y-74671803D01*
X67944004Y-74695007D01*
X67935946Y-74717529D01*
X67925718Y-74739153D01*
X67913421Y-74759670D01*
X67899171Y-74778883D01*
X67883107Y-74796607D01*
X67865383Y-74812671D01*
X67846170Y-74826921D01*
X67825653Y-74839218D01*
X67804029Y-74849446D01*
X67781507Y-74857504D01*
X67758303Y-74863316D01*
X67734642Y-74866826D01*
X67710750Y-74868000D01*
X67223250Y-74868000D01*
X67199358Y-74866826D01*
X67175697Y-74863316D01*
X67152493Y-74857504D01*
X67129971Y-74849446D01*
X67108347Y-74839218D01*
X67087830Y-74826921D01*
X67068617Y-74812671D01*
X67050893Y-74796607D01*
X67034829Y-74778883D01*
X67020579Y-74759670D01*
X67008282Y-74739153D01*
X66998054Y-74717529D01*
X66989996Y-74695007D01*
X66984184Y-74671803D01*
X66980674Y-74648142D01*
X66979500Y-74624250D01*
X66979500Y-73711750D01*
X66980674Y-73687858D01*
X66984184Y-73664197D01*
X66989996Y-73640993D01*
X66998054Y-73618471D01*
X67008282Y-73596847D01*
X67020579Y-73576330D01*
X67034829Y-73557117D01*
X67050893Y-73539393D01*
X67068617Y-73523329D01*
X67087830Y-73509079D01*
X67108347Y-73496782D01*
X67129971Y-73486554D01*
X67152493Y-73478496D01*
X67175697Y-73472684D01*
X67199358Y-73469174D01*
X67223250Y-73468000D01*
X67710750Y-73468000D01*
X67734642Y-73469174D01*
X67734642Y-73469174D01*
G37*
D11*
G04 #@! TD*
G04 #@! TO.P,R4,1*
G04 #@! TO.N,/RX*
X67467000Y-74168000D03*
D12*
G04 #@! TO.P,D1,2*
G04 #@! TO.N,GND*
X70116162Y-70347928D03*
G04 #@! TO.P,D1,*
G04 #@! TO.N,*
X68216162Y-70347928D03*
G04 #@! TO.P,D1,1*
G04 #@! TO.N,/RX*
X69166162Y-72347928D03*
G04 #@! TD*
D14*
G04 #@! TO.P,U1,1*
G04 #@! TO.N,Net-(C1-Pad2)*
X61966162Y-82397928D03*
G04 #@! TO.P,U1,2*
G04 #@! TO.N,GND*
X61966162Y-80117928D03*
G04 #@! TO.P,U1,3*
G04 #@! TO.N,+5V*
X61966162Y-77837928D03*
D15*
G04 #@! TO.P,U1,2*
G04 #@! TO.N,GND*
X55666162Y-80117928D03*
G04 #@! TD*
D10*
G04 #@! TO.N,GND*
G04 #@! TO.C,C1*
G36*
X65639666Y-79246132D02*
X65663935Y-79249732D01*
X65687733Y-79255693D01*
X65710833Y-79263958D01*
X65733011Y-79274448D01*
X65754055Y-79287061D01*
X65773760Y-79301675D01*
X65791939Y-79318151D01*
X65808415Y-79336330D01*
X65823029Y-79356035D01*
X65835642Y-79377079D01*
X65846132Y-79399257D01*
X65854397Y-79422357D01*
X65860358Y-79446155D01*
X65863958Y-79470424D01*
X65865162Y-79494928D01*
X65865162Y-80244928D01*
X65863958Y-80269432D01*
X65860358Y-80293701D01*
X65854397Y-80317499D01*
X65846132Y-80340599D01*
X65835642Y-80362777D01*
X65823029Y-80383821D01*
X65808415Y-80403526D01*
X65791939Y-80421705D01*
X65773760Y-80438181D01*
X65754055Y-80452795D01*
X65733011Y-80465408D01*
X65710833Y-80475898D01*
X65687733Y-80484163D01*
X65663935Y-80490124D01*
X65639666Y-80493724D01*
X65615162Y-80494928D01*
X64365162Y-80494928D01*
X64340658Y-80493724D01*
X64316389Y-80490124D01*
X64292591Y-80484163D01*
X64269491Y-80475898D01*
X64247313Y-80465408D01*
X64226269Y-80452795D01*
X64206564Y-80438181D01*
X64188385Y-80421705D01*
X64171909Y-80403526D01*
X64157295Y-80383821D01*
X64144682Y-80362777D01*
X64134192Y-80340599D01*
X64125927Y-80317499D01*
X64119966Y-80293701D01*
X64116366Y-80269432D01*
X64115162Y-80244928D01*
X64115162Y-79494928D01*
X64116366Y-79470424D01*
X64119966Y-79446155D01*
X64125927Y-79422357D01*
X64134192Y-79399257D01*
X64144682Y-79377079D01*
X64157295Y-79356035D01*
X64171909Y-79336330D01*
X64188385Y-79318151D01*
X64206564Y-79301675D01*
X64226269Y-79287061D01*
X64247313Y-79274448D01*
X64269491Y-79263958D01*
X64292591Y-79255693D01*
X64316389Y-79249732D01*
X64340658Y-79246132D01*
X64365162Y-79244928D01*
X65615162Y-79244928D01*
X65639666Y-79246132D01*
X65639666Y-79246132D01*
G37*
D16*
G04 #@! TD*
G04 #@! TO.P,C1,1*
G04 #@! TO.N,GND*
X64990162Y-79869928D03*
D10*
G04 #@! TO.N,Net-(C1-Pad2)*
G04 #@! TO.C,C1*
G36*
X65639666Y-82046132D02*
X65663935Y-82049732D01*
X65687733Y-82055693D01*
X65710833Y-82063958D01*
X65733011Y-82074448D01*
X65754055Y-82087061D01*
X65773760Y-82101675D01*
X65791939Y-82118151D01*
X65808415Y-82136330D01*
X65823029Y-82156035D01*
X65835642Y-82177079D01*
X65846132Y-82199257D01*
X65854397Y-82222357D01*
X65860358Y-82246155D01*
X65863958Y-82270424D01*
X65865162Y-82294928D01*
X65865162Y-83044928D01*
X65863958Y-83069432D01*
X65860358Y-83093701D01*
X65854397Y-83117499D01*
X65846132Y-83140599D01*
X65835642Y-83162777D01*
X65823029Y-83183821D01*
X65808415Y-83203526D01*
X65791939Y-83221705D01*
X65773760Y-83238181D01*
X65754055Y-83252795D01*
X65733011Y-83265408D01*
X65710833Y-83275898D01*
X65687733Y-83284163D01*
X65663935Y-83290124D01*
X65639666Y-83293724D01*
X65615162Y-83294928D01*
X64365162Y-83294928D01*
X64340658Y-83293724D01*
X64316389Y-83290124D01*
X64292591Y-83284163D01*
X64269491Y-83275898D01*
X64247313Y-83265408D01*
X64226269Y-83252795D01*
X64206564Y-83238181D01*
X64188385Y-83221705D01*
X64171909Y-83203526D01*
X64157295Y-83183821D01*
X64144682Y-83162777D01*
X64134192Y-83140599D01*
X64125927Y-83117499D01*
X64119966Y-83093701D01*
X64116366Y-83069432D01*
X64115162Y-83044928D01*
X64115162Y-82294928D01*
X64116366Y-82270424D01*
X64119966Y-82246155D01*
X64125927Y-82222357D01*
X64134192Y-82199257D01*
X64144682Y-82177079D01*
X64157295Y-82156035D01*
X64171909Y-82136330D01*
X64188385Y-82118151D01*
X64206564Y-82101675D01*
X64226269Y-82087061D01*
X64247313Y-82074448D01*
X64269491Y-82063958D01*
X64292591Y-82055693D01*
X64316389Y-82049732D01*
X64340658Y-82046132D01*
X64365162Y-82044928D01*
X65615162Y-82044928D01*
X65639666Y-82046132D01*
X65639666Y-82046132D01*
G37*
D16*
G04 #@! TD*
G04 #@! TO.P,C1,2*
G04 #@! TO.N,Net-(C1-Pad2)*
X64990162Y-82669928D03*
D10*
G04 #@! TO.N,+5V*
G04 #@! TO.C,C2*
G36*
X70757504Y-76088204D02*
X70781773Y-76091804D01*
X70805571Y-76097765D01*
X70828671Y-76106030D01*
X70850849Y-76116520D01*
X70871893Y-76129133D01*
X70891598Y-76143747D01*
X70909777Y-76160223D01*
X70926253Y-76178402D01*
X70940867Y-76198107D01*
X70953480Y-76219151D01*
X70963970Y-76241329D01*
X70972235Y-76264429D01*
X70978196Y-76288227D01*
X70981796Y-76312496D01*
X70983000Y-76337000D01*
X70983000Y-77587000D01*
X70981796Y-77611504D01*
X70978196Y-77635773D01*
X70972235Y-77659571D01*
X70963970Y-77682671D01*
X70953480Y-77704849D01*
X70940867Y-77725893D01*
X70926253Y-77745598D01*
X70909777Y-77763777D01*
X70891598Y-77780253D01*
X70871893Y-77794867D01*
X70850849Y-77807480D01*
X70828671Y-77817970D01*
X70805571Y-77826235D01*
X70781773Y-77832196D01*
X70757504Y-77835796D01*
X70733000Y-77837000D01*
X69983000Y-77837000D01*
X69958496Y-77835796D01*
X69934227Y-77832196D01*
X69910429Y-77826235D01*
X69887329Y-77817970D01*
X69865151Y-77807480D01*
X69844107Y-77794867D01*
X69824402Y-77780253D01*
X69806223Y-77763777D01*
X69789747Y-77745598D01*
X69775133Y-77725893D01*
X69762520Y-77704849D01*
X69752030Y-77682671D01*
X69743765Y-77659571D01*
X69737804Y-77635773D01*
X69734204Y-77611504D01*
X69733000Y-77587000D01*
X69733000Y-76337000D01*
X69734204Y-76312496D01*
X69737804Y-76288227D01*
X69743765Y-76264429D01*
X69752030Y-76241329D01*
X69762520Y-76219151D01*
X69775133Y-76198107D01*
X69789747Y-76178402D01*
X69806223Y-76160223D01*
X69824402Y-76143747D01*
X69844107Y-76129133D01*
X69865151Y-76116520D01*
X69887329Y-76106030D01*
X69910429Y-76097765D01*
X69934227Y-76091804D01*
X69958496Y-76088204D01*
X69983000Y-76087000D01*
X70733000Y-76087000D01*
X70757504Y-76088204D01*
X70757504Y-76088204D01*
G37*
D16*
G04 #@! TD*
G04 #@! TO.P,C2,2*
G04 #@! TO.N,+5V*
X70358000Y-76962000D03*
D10*
G04 #@! TO.N,GND*
G04 #@! TO.C,C2*
G36*
X67957504Y-76088204D02*
X67981773Y-76091804D01*
X68005571Y-76097765D01*
X68028671Y-76106030D01*
X68050849Y-76116520D01*
X68071893Y-76129133D01*
X68091598Y-76143747D01*
X68109777Y-76160223D01*
X68126253Y-76178402D01*
X68140867Y-76198107D01*
X68153480Y-76219151D01*
X68163970Y-76241329D01*
X68172235Y-76264429D01*
X68178196Y-76288227D01*
X68181796Y-76312496D01*
X68183000Y-76337000D01*
X68183000Y-77587000D01*
X68181796Y-77611504D01*
X68178196Y-77635773D01*
X68172235Y-77659571D01*
X68163970Y-77682671D01*
X68153480Y-77704849D01*
X68140867Y-77725893D01*
X68126253Y-77745598D01*
X68109777Y-77763777D01*
X68091598Y-77780253D01*
X68071893Y-77794867D01*
X68050849Y-77807480D01*
X68028671Y-77817970D01*
X68005571Y-77826235D01*
X67981773Y-77832196D01*
X67957504Y-77835796D01*
X67933000Y-77837000D01*
X67183000Y-77837000D01*
X67158496Y-77835796D01*
X67134227Y-77832196D01*
X67110429Y-77826235D01*
X67087329Y-77817970D01*
X67065151Y-77807480D01*
X67044107Y-77794867D01*
X67024402Y-77780253D01*
X67006223Y-77763777D01*
X66989747Y-77745598D01*
X66975133Y-77725893D01*
X66962520Y-77704849D01*
X66952030Y-77682671D01*
X66943765Y-77659571D01*
X66937804Y-77635773D01*
X66934204Y-77611504D01*
X66933000Y-77587000D01*
X66933000Y-76337000D01*
X66934204Y-76312496D01*
X66937804Y-76288227D01*
X66943765Y-76264429D01*
X66952030Y-76241329D01*
X66962520Y-76219151D01*
X66975133Y-76198107D01*
X66989747Y-76178402D01*
X67006223Y-76160223D01*
X67024402Y-76143747D01*
X67044107Y-76129133D01*
X67065151Y-76116520D01*
X67087329Y-76106030D01*
X67110429Y-76097765D01*
X67134227Y-76091804D01*
X67158496Y-76088204D01*
X67183000Y-76087000D01*
X67933000Y-76087000D01*
X67957504Y-76088204D01*
X67957504Y-76088204D01*
G37*
D16*
G04 #@! TD*
G04 #@! TO.P,C2,1*
G04 #@! TO.N,GND*
X67558000Y-76962000D03*
D17*
G04 #@! TO.P,J1,1*
G04 #@! TO.N,N/C*
X85056162Y-71057928D03*
G04 #@! TO.P,J1,2*
G04 #@! TO.N,/RXD*
X85056162Y-73827928D03*
G04 #@! TO.P,J1,3*
G04 #@! TO.N,/TXD*
X85056162Y-76597928D03*
G04 #@! TO.P,J1,4*
G04 #@! TO.N,/DTR*
X85056162Y-79367928D03*
G04 #@! TO.P,J1,5*
G04 #@! TO.N,GND*
X85056162Y-82137928D03*
G04 #@! TD*
D18*
G04 #@! TO.P,J3,1*
G04 #@! TO.N,+5V*
X80266162Y-72747928D03*
D19*
G04 #@! TO.P,J3,2*
G04 #@! TO.N,GND*
X80266162Y-75287928D03*
G04 #@! TO.P,J3,3*
G04 #@! TO.N,/TX*
X80266162Y-77827928D03*
G04 #@! TO.P,J3,4*
G04 #@! TO.N,/RX*
X80266162Y-80367928D03*
G04 #@! TD*
D20*
G04 #@! TO.P,C3,1*
G04 #@! TO.N,GND*
X69766162Y-82409928D03*
D21*
G04 #@! TO.P,C3,2*
G04 #@! TO.N,+5V*
X69766162Y-79909928D03*
G04 #@! TD*
D18*
G04 #@! TO.P,J2,1*
G04 #@! TO.N,GND*
X54864000Y-71882000D03*
D19*
G04 #@! TO.P,J2,2*
G04 #@! TO.N,+12V*
X57404000Y-71882000D03*
G04 #@! TD*
D22*
G04 #@! TO.P,D2,1*
G04 #@! TO.N,Net-(D2-Pad1)*
X62450162Y-70599928D03*
G04 #@! TO.P,D2,2*
G04 #@! TO.N,+12V*
X62450162Y-73899928D03*
G04 #@! TD*
D23*
G04 #@! TO.P,F1,1*
G04 #@! TO.N,Net-(D2-Pad1)*
X64990162Y-70687928D03*
G04 #@! TO.P,F1,2*
G04 #@! TO.N,Net-(C1-Pad2)*
X64990162Y-72287928D03*
G04 #@! TD*
D24*
G04 #@! TO.N,Net-(C1-Pad2)*
X61976000Y-82296000D03*
X65024000Y-74422000D03*
G04 #@! TO.N,+5V*
X61966162Y-77837928D03*
X70358000Y-75438000D03*
G04 #@! TO.N,GND*
X58166000Y-82550000D03*
X56642000Y-82550000D03*
X55118000Y-82550000D03*
X53848000Y-82550000D03*
X58166000Y-81280000D03*
X58166000Y-79756000D03*
X58166000Y-78486000D03*
X56642000Y-81280000D03*
X56642000Y-79756000D03*
X56642000Y-78486000D03*
X55118000Y-78486000D03*
X55118000Y-79756000D03*
X55118000Y-81280000D03*
X53848000Y-81280000D03*
X53848000Y-79756000D03*
X53848000Y-78486000D03*
X72644000Y-74168000D03*
X71374000Y-69596000D03*
X76962000Y-74168000D03*
G04 #@! TO.N,/RXD*
X73914000Y-78740000D03*
X73914000Y-78740000D03*
X77978000Y-73660000D03*
G04 #@! TO.N,/TXD*
X82042000Y-75946000D03*
X78232000Y-70612000D03*
G04 #@! TD*
D25*
G04 #@! TO.N,Net-(C1-Pad2)*
X61976000Y-82296000D02*
X61966162Y-83322929D01*
X62238162Y-82669928D02*
X61966162Y-82397928D01*
X64990162Y-82669928D02*
X62238162Y-82669928D01*
X64990162Y-74134162D02*
X64990162Y-72425428D01*
X65024000Y-74422000D02*
X64990162Y-74134162D01*
D10*
G04 #@! TO.N,+5V*
X70358000Y-79318090D02*
X69766162Y-79909928D01*
X70358000Y-76962000D02*
X70358000Y-79318090D01*
X69342000Y-74168000D02*
X70358000Y-75184000D01*
X70358000Y-75184000D02*
X70358000Y-75438000D01*
X70358000Y-75438000D02*
X70358000Y-76962000D01*
D26*
G04 #@! TO.N,+12V*
X61816162Y-73265928D02*
X62450162Y-73899928D01*
X57568169Y-73265928D02*
X61816162Y-73265928D01*
X57404000Y-73101759D02*
X57568169Y-73265928D01*
X57404000Y-71882000D02*
X57404000Y-73101759D01*
D25*
G04 #@! TO.N,GND*
X64742162Y-80117928D02*
X64990162Y-79869928D01*
X61966162Y-80117928D02*
X64742162Y-80117928D01*
X74166162Y-70347928D02*
X74316162Y-70497928D01*
X72964000Y-74488000D02*
X72644000Y-74168000D01*
X72964000Y-75454000D02*
X72964000Y-74488000D01*
X71374000Y-69596000D02*
X71374000Y-70347928D01*
X70116162Y-70347928D02*
X71374000Y-70347928D01*
X71374000Y-70347928D02*
X74166162Y-70347928D01*
X78081928Y-75287928D02*
X80266162Y-75287928D01*
X76962000Y-74168000D02*
X78081928Y-75287928D01*
G04 #@! TO.N,Net-(Q1-Pad1)*
X74864000Y-75454000D02*
X75962000Y-75454000D01*
X75962000Y-75454000D02*
X77470000Y-76962000D01*
X77470000Y-76962000D02*
X77470000Y-80010000D01*
G04 #@! TO.N,Net-(Q2-Pad1)*
X74316162Y-72397928D02*
X74571072Y-72397928D01*
X76621572Y-72397928D02*
X76708000Y-72311500D01*
X74316162Y-72397928D02*
X76621572Y-72397928D01*
G04 #@! TO.N,/TX*
X77470000Y-81885000D02*
X80929000Y-81885000D01*
X80929000Y-81885000D02*
X82042000Y-80772000D01*
X82042000Y-79603766D02*
X80266162Y-77827928D01*
X82042000Y-80772000D02*
X82042000Y-79603766D01*
G04 #@! TO.N,/RX*
X67467000Y-74168000D02*
X67467000Y-73249000D01*
X68368072Y-72347928D02*
X69166162Y-72347928D01*
X67467000Y-73249000D02*
X68368072Y-72347928D01*
X72316162Y-72097928D02*
X72316162Y-71447928D01*
X72066162Y-72347928D02*
X72316162Y-72097928D01*
X69166162Y-72347928D02*
X72066162Y-72347928D01*
X72316162Y-72097928D02*
X74132234Y-73914000D01*
X74132234Y-73914000D02*
X75438000Y-73914000D01*
X75438000Y-73914000D02*
X78489429Y-76965429D01*
X78489429Y-78591195D02*
X78489429Y-76965429D01*
X80266162Y-80367928D02*
X78489429Y-78591195D01*
G04 #@! TO.N,Net-(D2-Pad1)*
X64940662Y-70599928D02*
X64990162Y-70550428D01*
X62450162Y-70599928D02*
X64940662Y-70599928D01*
G04 #@! TO.N,/RXD*
X73914000Y-78154000D02*
X73914000Y-78740000D01*
X73914000Y-77454000D02*
X73914000Y-78154000D01*
X73914000Y-78740000D02*
X73914000Y-80596500D01*
X84239496Y-73827928D02*
X85056162Y-73827928D01*
X83066162Y-73827928D02*
X82042000Y-72803766D01*
X85056162Y-73827928D02*
X83066162Y-73827928D01*
X82042000Y-72803766D02*
X82042000Y-71120000D01*
X82042000Y-71120000D02*
X81788000Y-70866000D01*
X81788000Y-70866000D02*
X79248000Y-70866000D01*
X79248000Y-70866000D02*
X77978000Y-72136000D01*
X77978000Y-72136000D02*
X77978000Y-73660000D01*
G04 #@! TO.N,/TXD*
X76192928Y-70447928D02*
X76357000Y-70612000D01*
X84239496Y-76597928D02*
X85056162Y-76597928D01*
X83066162Y-76597928D02*
X85056162Y-76597928D01*
X82269664Y-76597928D02*
X83066162Y-76597928D01*
X82042000Y-76370264D02*
X82269664Y-76597928D01*
X82042000Y-75946000D02*
X82042000Y-76370264D01*
X78056500Y-70436500D02*
X78232000Y-70612000D01*
X76708000Y-70436500D02*
X78056500Y-70436500D01*
G04 #@! TO.N,/DTR*
X84239496Y-79367928D02*
X85056162Y-79367928D01*
X80579687Y-83027737D02*
X84239496Y-79367928D01*
X74470237Y-83027737D02*
X80579687Y-83027737D01*
X73914000Y-82471500D02*
X74470237Y-83027737D01*
G04 #@! TD*
D27*
G04 #@! TO.N,GND*
G36*
X67358353Y-69440119D02*
X67218005Y-69650163D01*
X67168722Y-69897928D01*
X67168722Y-70797928D01*
X67218005Y-71045693D01*
X67358353Y-71255737D01*
X67568397Y-71396085D01*
X67816162Y-71445368D01*
X68304846Y-71445368D01*
X68196770Y-71607113D01*
X68071535Y-71632024D01*
X67820143Y-71799999D01*
X67777743Y-71863455D01*
X66982528Y-72658671D01*
X66919072Y-72701071D01*
X66876672Y-72764527D01*
X66876671Y-72764528D01*
X66751097Y-72952463D01*
X66745697Y-72979611D01*
X66593084Y-73081584D01*
X66399898Y-73370706D01*
X66332060Y-73711750D01*
X66332060Y-74624250D01*
X66399898Y-74965294D01*
X66593084Y-75254416D01*
X66882206Y-75447602D01*
X66904316Y-75452000D01*
X66806691Y-75452000D01*
X66573302Y-75548673D01*
X66394673Y-75727301D01*
X66298000Y-75960690D01*
X66298000Y-76676250D01*
X66456750Y-76835000D01*
X67431000Y-76835000D01*
X67431000Y-76815000D01*
X67685000Y-76815000D01*
X67685000Y-76835000D01*
X68659250Y-76835000D01*
X68818000Y-76676250D01*
X68818000Y-75960690D01*
X68721327Y-75727301D01*
X68542698Y-75548673D01*
X68309309Y-75452000D01*
X68029684Y-75452000D01*
X68051794Y-75447602D01*
X68340916Y-75254416D01*
X68404500Y-75159256D01*
X68468084Y-75254416D01*
X68757206Y-75447602D01*
X69098250Y-75515440D01*
X69423000Y-75515440D01*
X69423000Y-75623983D01*
X69432277Y-75646379D01*
X69348414Y-75702414D01*
X69153874Y-75993565D01*
X69085560Y-76337000D01*
X69085560Y-77587000D01*
X69153874Y-77930435D01*
X69348414Y-78221586D01*
X69573001Y-78371649D01*
X69573001Y-78474928D01*
X69480723Y-78474928D01*
X68953300Y-78693394D01*
X68549628Y-79097066D01*
X68331162Y-79624489D01*
X68331162Y-80195367D01*
X68549628Y-80722790D01*
X68812921Y-80986083D01*
X68606463Y-81071601D01*
X68427835Y-81250230D01*
X68331162Y-81483619D01*
X68331162Y-82124178D01*
X68489912Y-82282928D01*
X69639162Y-82282928D01*
X69639162Y-82262928D01*
X69893162Y-82262928D01*
X69893162Y-82282928D01*
X71042412Y-82282928D01*
X71201162Y-82124178D01*
X71201162Y-81483619D01*
X71104489Y-81250230D01*
X70925861Y-81071601D01*
X70719403Y-80986083D01*
X70982696Y-80722790D01*
X71201162Y-80195367D01*
X71201162Y-79624489D01*
X71131085Y-79455308D01*
X71143000Y-79395406D01*
X71143000Y-79395402D01*
X71158378Y-79318091D01*
X71143000Y-79240780D01*
X71143000Y-78371649D01*
X71367586Y-78221586D01*
X71562126Y-77930435D01*
X71630440Y-77587000D01*
X71630440Y-76337000D01*
X71562126Y-75993565D01*
X71392534Y-75739750D01*
X71929000Y-75739750D01*
X71929000Y-76030309D01*
X72025673Y-76263698D01*
X72204301Y-76442327D01*
X72437690Y-76539000D01*
X72678250Y-76539000D01*
X72837000Y-76380250D01*
X72837000Y-75581000D01*
X72087750Y-75581000D01*
X71929000Y-75739750D01*
X71392534Y-75739750D01*
X71367586Y-75702414D01*
X71283723Y-75646379D01*
X71293000Y-75623983D01*
X71293000Y-75252017D01*
X71150655Y-74908365D01*
X71119981Y-74877691D01*
X71929000Y-74877691D01*
X71929000Y-75168250D01*
X72087750Y-75327000D01*
X72837000Y-75327000D01*
X72837000Y-74527750D01*
X72678250Y-74369000D01*
X72437690Y-74369000D01*
X72204301Y-74465673D01*
X72025673Y-74644302D01*
X71929000Y-74877691D01*
X71119981Y-74877691D01*
X71052057Y-74809767D01*
X71016288Y-74756235D01*
X70967749Y-74683591D01*
X70967747Y-74683589D01*
X70923953Y-74618047D01*
X70858411Y-74574253D01*
X70476940Y-74192782D01*
X70476940Y-73711750D01*
X70409102Y-73370706D01*
X70233519Y-73107928D01*
X71991315Y-73107928D01*
X72066162Y-73122816D01*
X72141009Y-73107928D01*
X72141014Y-73107928D01*
X72233053Y-73089620D01*
X73528075Y-74384643D01*
X73490310Y-74369000D01*
X73249750Y-74369000D01*
X73091000Y-74527750D01*
X73091000Y-75327000D01*
X73111000Y-75327000D01*
X73111000Y-75581000D01*
X73091000Y-75581000D01*
X73091000Y-76380250D01*
X73176531Y-76465781D01*
X73056191Y-76546191D01*
X72915843Y-76756235D01*
X72866560Y-77004000D01*
X72866560Y-77904000D01*
X72915843Y-78151765D01*
X73056191Y-78361809D01*
X73058090Y-78363078D01*
X72979000Y-78554017D01*
X72979000Y-78925983D01*
X73121345Y-79269635D01*
X73154000Y-79302290D01*
X73154000Y-79521980D01*
X73116706Y-79529398D01*
X72827584Y-79722584D01*
X72634398Y-80011706D01*
X72566560Y-80352750D01*
X72566560Y-80840250D01*
X72634398Y-81181294D01*
X72827584Y-81470416D01*
X72922744Y-81534000D01*
X72827584Y-81597584D01*
X72634398Y-81886706D01*
X72566560Y-82227750D01*
X72566560Y-82715250D01*
X72634398Y-83056294D01*
X72827584Y-83345416D01*
X73116706Y-83538602D01*
X73457750Y-83606440D01*
X73968364Y-83606440D01*
X74173700Y-83743641D01*
X74395385Y-83787737D01*
X74395390Y-83787737D01*
X74470237Y-83802625D01*
X74545084Y-83787737D01*
X80504840Y-83787737D01*
X80579687Y-83802625D01*
X80654534Y-83787737D01*
X80654539Y-83787737D01*
X80876224Y-83743641D01*
X81127616Y-83575666D01*
X81170018Y-83512207D01*
X82258547Y-82423678D01*
X82681162Y-82423678D01*
X82681162Y-83187570D01*
X82777835Y-83420959D01*
X82956463Y-83599588D01*
X83189852Y-83696261D01*
X84770412Y-83696261D01*
X84929162Y-83537511D01*
X84929162Y-82264928D01*
X82839912Y-82264928D01*
X82681162Y-82423678D01*
X82258547Y-82423678D01*
X82755605Y-81926621D01*
X82839912Y-82010928D01*
X84929162Y-82010928D01*
X84929162Y-81990928D01*
X85183162Y-81990928D01*
X85183162Y-82010928D01*
X85203162Y-82010928D01*
X85203162Y-82264928D01*
X85183162Y-82264928D01*
X85183162Y-83537511D01*
X85341912Y-83696261D01*
X86922472Y-83696261D01*
X86961162Y-83680235D01*
X86961162Y-83807845D01*
X75909690Y-83887928D01*
X65888848Y-83887928D01*
X65958597Y-83874054D01*
X66249748Y-83679514D01*
X66444288Y-83388363D01*
X66512602Y-83044928D01*
X66512602Y-82695678D01*
X68331162Y-82695678D01*
X68331162Y-83336237D01*
X68427835Y-83569626D01*
X68606463Y-83748255D01*
X68839852Y-83844928D01*
X69480412Y-83844928D01*
X69639162Y-83686178D01*
X69639162Y-82536928D01*
X69893162Y-82536928D01*
X69893162Y-83686178D01*
X70051912Y-83844928D01*
X70692472Y-83844928D01*
X70925861Y-83748255D01*
X71104489Y-83569626D01*
X71201162Y-83336237D01*
X71201162Y-82695678D01*
X71042412Y-82536928D01*
X69893162Y-82536928D01*
X69639162Y-82536928D01*
X68489912Y-82536928D01*
X68331162Y-82695678D01*
X66512602Y-82695678D01*
X66512602Y-82294928D01*
X66444288Y-81951493D01*
X66249748Y-81660342D01*
X65958597Y-81465802D01*
X65615162Y-81397488D01*
X64365162Y-81397488D01*
X64021727Y-81465802D01*
X63730576Y-81660342D01*
X63696407Y-81711480D01*
X63664319Y-81550163D01*
X63523971Y-81340119D01*
X63408946Y-81263261D01*
X63425860Y-81256255D01*
X63604489Y-81077627D01*
X63661705Y-80939496D01*
X63755463Y-81033255D01*
X63988852Y-81129928D01*
X64704412Y-81129928D01*
X64863162Y-80971178D01*
X64863162Y-79996928D01*
X65117162Y-79996928D01*
X65117162Y-80971178D01*
X65275912Y-81129928D01*
X65991472Y-81129928D01*
X66224861Y-81033255D01*
X66403489Y-80854626D01*
X66500162Y-80621237D01*
X66500162Y-80155678D01*
X66341412Y-79996928D01*
X65117162Y-79996928D01*
X64863162Y-79996928D01*
X64843162Y-79996928D01*
X64843162Y-79742928D01*
X64863162Y-79742928D01*
X64863162Y-78768678D01*
X65117162Y-78768678D01*
X65117162Y-79742928D01*
X66341412Y-79742928D01*
X66500162Y-79584178D01*
X66500162Y-79118619D01*
X66403489Y-78885230D01*
X66224861Y-78706601D01*
X65991472Y-78609928D01*
X65275912Y-78609928D01*
X65117162Y-78768678D01*
X64863162Y-78768678D01*
X64704412Y-78609928D01*
X63988852Y-78609928D01*
X63755463Y-78706601D01*
X63576835Y-78885230D01*
X63504975Y-79058715D01*
X63425860Y-78979601D01*
X63408946Y-78972595D01*
X63523971Y-78895737D01*
X63664319Y-78685693D01*
X63713602Y-78437928D01*
X63713602Y-77247750D01*
X66298000Y-77247750D01*
X66298000Y-77963310D01*
X66394673Y-78196699D01*
X66573302Y-78375327D01*
X66806691Y-78472000D01*
X67272250Y-78472000D01*
X67431000Y-78313250D01*
X67431000Y-77089000D01*
X67685000Y-77089000D01*
X67685000Y-78313250D01*
X67843750Y-78472000D01*
X68309309Y-78472000D01*
X68542698Y-78375327D01*
X68721327Y-78196699D01*
X68818000Y-77963310D01*
X68818000Y-77247750D01*
X68659250Y-77089000D01*
X67685000Y-77089000D01*
X67431000Y-77089000D01*
X66456750Y-77089000D01*
X66298000Y-77247750D01*
X63713602Y-77247750D01*
X63713602Y-77237928D01*
X63664319Y-76990163D01*
X63523971Y-76780119D01*
X63313927Y-76639771D01*
X63066162Y-76590488D01*
X60866162Y-76590488D01*
X60618397Y-76639771D01*
X60408353Y-76780119D01*
X60268005Y-76990163D01*
X60218722Y-77237928D01*
X60218722Y-78437928D01*
X60268005Y-78685693D01*
X60408353Y-78895737D01*
X60523378Y-78972595D01*
X60506464Y-78979601D01*
X60327835Y-79158229D01*
X60231162Y-79391618D01*
X60231162Y-79832178D01*
X60389912Y-79990928D01*
X61839162Y-79990928D01*
X61839162Y-79970928D01*
X62093162Y-79970928D01*
X62093162Y-79990928D01*
X62113162Y-79990928D01*
X62113162Y-80244928D01*
X62093162Y-80244928D01*
X62093162Y-80264928D01*
X61839162Y-80264928D01*
X61839162Y-80244928D01*
X60389912Y-80244928D01*
X60231162Y-80403678D01*
X60231162Y-80844238D01*
X60327835Y-81077627D01*
X60506464Y-81256255D01*
X60523378Y-81263261D01*
X60408353Y-81340119D01*
X60268005Y-81550163D01*
X60218722Y-81797928D01*
X60218722Y-82997928D01*
X60268005Y-83245693D01*
X60408353Y-83455737D01*
X60618397Y-83596085D01*
X60866162Y-83645368D01*
X61268899Y-83645368D01*
X61413010Y-83865583D01*
X61445768Y-83887928D01*
X52476162Y-83887928D01*
X52476162Y-83652928D01*
X55380412Y-83652928D01*
X55539162Y-83494178D01*
X55539162Y-80244928D01*
X55793162Y-80244928D01*
X55793162Y-83494178D01*
X55951912Y-83652928D01*
X58992471Y-83652928D01*
X59225860Y-83556255D01*
X59404489Y-83377627D01*
X59501162Y-83144238D01*
X59501162Y-80403678D01*
X59342412Y-80244928D01*
X55793162Y-80244928D01*
X55539162Y-80244928D01*
X55519162Y-80244928D01*
X55519162Y-79990928D01*
X55539162Y-79990928D01*
X55539162Y-76741678D01*
X55793162Y-76741678D01*
X55793162Y-79990928D01*
X59342412Y-79990928D01*
X59501162Y-79832178D01*
X59501162Y-77091618D01*
X59404489Y-76858229D01*
X59225860Y-76679601D01*
X58992471Y-76582928D01*
X55951912Y-76582928D01*
X55793162Y-76741678D01*
X55539162Y-76741678D01*
X55380412Y-76582928D01*
X52476162Y-76582928D01*
X52476162Y-72167750D01*
X53366500Y-72167750D01*
X53366500Y-72870809D01*
X53463173Y-73104198D01*
X53641801Y-73282827D01*
X53875190Y-73379500D01*
X54578250Y-73379500D01*
X54737000Y-73220750D01*
X54737000Y-72009000D01*
X53525250Y-72009000D01*
X53366500Y-72167750D01*
X52476162Y-72167750D01*
X52476162Y-70893191D01*
X53366500Y-70893191D01*
X53366500Y-71596250D01*
X53525250Y-71755000D01*
X54737000Y-71755000D01*
X54737000Y-70543250D01*
X54991000Y-70543250D01*
X54991000Y-71755000D01*
X55011000Y-71755000D01*
X55011000Y-72009000D01*
X54991000Y-72009000D01*
X54991000Y-73220750D01*
X55149750Y-73379500D01*
X55852810Y-73379500D01*
X56086199Y-73282827D01*
X56264827Y-73104198D01*
X56336172Y-72931957D01*
X56555734Y-73151519D01*
X56590930Y-73166098D01*
X56633200Y-73378602D01*
X56640998Y-73417805D01*
X56820024Y-73685736D01*
X56887654Y-73730925D01*
X56939001Y-73782272D01*
X56984192Y-73849905D01*
X57252123Y-74028931D01*
X57488395Y-74075928D01*
X57568168Y-74091796D01*
X57647941Y-74075928D01*
X61202722Y-74075928D01*
X61202722Y-74349928D01*
X61252005Y-74597693D01*
X61392353Y-74807737D01*
X61602397Y-74948085D01*
X61850162Y-74997368D01*
X63050162Y-74997368D01*
X63297927Y-74948085D01*
X63507971Y-74807737D01*
X63648319Y-74597693D01*
X63697602Y-74349928D01*
X63697602Y-73449928D01*
X63648319Y-73202163D01*
X63507971Y-72992119D01*
X63297927Y-72851771D01*
X63050162Y-72802488D01*
X62498234Y-72802488D01*
X62445330Y-72749583D01*
X62400139Y-72681951D01*
X62132208Y-72502925D01*
X61895936Y-72455928D01*
X61895935Y-72455928D01*
X61816162Y-72440060D01*
X61736389Y-72455928D01*
X58787153Y-72455928D01*
X58901500Y-72179871D01*
X58901500Y-71584129D01*
X58673519Y-71033734D01*
X58252266Y-70612481D01*
X57701871Y-70384500D01*
X57106129Y-70384500D01*
X56555734Y-70612481D01*
X56336172Y-70832043D01*
X56264827Y-70659802D01*
X56086199Y-70481173D01*
X55852810Y-70384500D01*
X55149750Y-70384500D01*
X54991000Y-70543250D01*
X54737000Y-70543250D01*
X54578250Y-70384500D01*
X53875190Y-70384500D01*
X53641801Y-70481173D01*
X53463173Y-70659802D01*
X53366500Y-70893191D01*
X52476162Y-70893191D01*
X52476162Y-70149928D01*
X61202722Y-70149928D01*
X61202722Y-71049928D01*
X61252005Y-71297693D01*
X61392353Y-71507737D01*
X61602397Y-71648085D01*
X61850162Y-71697368D01*
X63050162Y-71697368D01*
X63297927Y-71648085D01*
X63507971Y-71507737D01*
X63606735Y-71359928D01*
X63899864Y-71359928D01*
X63902005Y-71370693D01*
X63980340Y-71487928D01*
X63902005Y-71605163D01*
X63852722Y-71852928D01*
X63852722Y-72722928D01*
X63902005Y-72970693D01*
X64042353Y-73180737D01*
X64230162Y-73306228D01*
X64230162Y-73895221D01*
X64089000Y-74236017D01*
X64089000Y-74607983D01*
X64231345Y-74951635D01*
X64494365Y-75214655D01*
X64838017Y-75357000D01*
X65209983Y-75357000D01*
X65553635Y-75214655D01*
X65816655Y-74951635D01*
X65959000Y-74607983D01*
X65959000Y-74236017D01*
X65816655Y-73892365D01*
X65750162Y-73825872D01*
X65750162Y-73306228D01*
X65937971Y-73180737D01*
X66078319Y-72970693D01*
X66127602Y-72722928D01*
X66127602Y-71852928D01*
X66078319Y-71605163D01*
X65999984Y-71487928D01*
X66078319Y-71370693D01*
X66127602Y-71122928D01*
X66127602Y-70252928D01*
X66078319Y-70005163D01*
X65937971Y-69795119D01*
X65727927Y-69654771D01*
X65480162Y-69605488D01*
X64500162Y-69605488D01*
X64252397Y-69654771D01*
X64042353Y-69795119D01*
X64012412Y-69839928D01*
X63606735Y-69839928D01*
X63507971Y-69692119D01*
X63297927Y-69551771D01*
X63050162Y-69502488D01*
X61850162Y-69502488D01*
X61602397Y-69551771D01*
X61392353Y-69692119D01*
X61252005Y-69902163D01*
X61202722Y-70149928D01*
X52476162Y-70149928D01*
X52476162Y-69307928D01*
X67556189Y-69307928D01*
X67358353Y-69440119D01*
X67358353Y-69440119D01*
G37*
X67358353Y-69440119D02*
X67218005Y-69650163D01*
X67168722Y-69897928D01*
X67168722Y-70797928D01*
X67218005Y-71045693D01*
X67358353Y-71255737D01*
X67568397Y-71396085D01*
X67816162Y-71445368D01*
X68304846Y-71445368D01*
X68196770Y-71607113D01*
X68071535Y-71632024D01*
X67820143Y-71799999D01*
X67777743Y-71863455D01*
X66982528Y-72658671D01*
X66919072Y-72701071D01*
X66876672Y-72764527D01*
X66876671Y-72764528D01*
X66751097Y-72952463D01*
X66745697Y-72979611D01*
X66593084Y-73081584D01*
X66399898Y-73370706D01*
X66332060Y-73711750D01*
X66332060Y-74624250D01*
X66399898Y-74965294D01*
X66593084Y-75254416D01*
X66882206Y-75447602D01*
X66904316Y-75452000D01*
X66806691Y-75452000D01*
X66573302Y-75548673D01*
X66394673Y-75727301D01*
X66298000Y-75960690D01*
X66298000Y-76676250D01*
X66456750Y-76835000D01*
X67431000Y-76835000D01*
X67431000Y-76815000D01*
X67685000Y-76815000D01*
X67685000Y-76835000D01*
X68659250Y-76835000D01*
X68818000Y-76676250D01*
X68818000Y-75960690D01*
X68721327Y-75727301D01*
X68542698Y-75548673D01*
X68309309Y-75452000D01*
X68029684Y-75452000D01*
X68051794Y-75447602D01*
X68340916Y-75254416D01*
X68404500Y-75159256D01*
X68468084Y-75254416D01*
X68757206Y-75447602D01*
X69098250Y-75515440D01*
X69423000Y-75515440D01*
X69423000Y-75623983D01*
X69432277Y-75646379D01*
X69348414Y-75702414D01*
X69153874Y-75993565D01*
X69085560Y-76337000D01*
X69085560Y-77587000D01*
X69153874Y-77930435D01*
X69348414Y-78221586D01*
X69573001Y-78371649D01*
X69573001Y-78474928D01*
X69480723Y-78474928D01*
X68953300Y-78693394D01*
X68549628Y-79097066D01*
X68331162Y-79624489D01*
X68331162Y-80195367D01*
X68549628Y-80722790D01*
X68812921Y-80986083D01*
X68606463Y-81071601D01*
X68427835Y-81250230D01*
X68331162Y-81483619D01*
X68331162Y-82124178D01*
X68489912Y-82282928D01*
X69639162Y-82282928D01*
X69639162Y-82262928D01*
X69893162Y-82262928D01*
X69893162Y-82282928D01*
X71042412Y-82282928D01*
X71201162Y-82124178D01*
X71201162Y-81483619D01*
X71104489Y-81250230D01*
X70925861Y-81071601D01*
X70719403Y-80986083D01*
X70982696Y-80722790D01*
X71201162Y-80195367D01*
X71201162Y-79624489D01*
X71131085Y-79455308D01*
X71143000Y-79395406D01*
X71143000Y-79395402D01*
X71158378Y-79318091D01*
X71143000Y-79240780D01*
X71143000Y-78371649D01*
X71367586Y-78221586D01*
X71562126Y-77930435D01*
X71630440Y-77587000D01*
X71630440Y-76337000D01*
X71562126Y-75993565D01*
X71392534Y-75739750D01*
X71929000Y-75739750D01*
X71929000Y-76030309D01*
X72025673Y-76263698D01*
X72204301Y-76442327D01*
X72437690Y-76539000D01*
X72678250Y-76539000D01*
X72837000Y-76380250D01*
X72837000Y-75581000D01*
X72087750Y-75581000D01*
X71929000Y-75739750D01*
X71392534Y-75739750D01*
X71367586Y-75702414D01*
X71283723Y-75646379D01*
X71293000Y-75623983D01*
X71293000Y-75252017D01*
X71150655Y-74908365D01*
X71119981Y-74877691D01*
X71929000Y-74877691D01*
X71929000Y-75168250D01*
X72087750Y-75327000D01*
X72837000Y-75327000D01*
X72837000Y-74527750D01*
X72678250Y-74369000D01*
X72437690Y-74369000D01*
X72204301Y-74465673D01*
X72025673Y-74644302D01*
X71929000Y-74877691D01*
X71119981Y-74877691D01*
X71052057Y-74809767D01*
X71016288Y-74756235D01*
X70967749Y-74683591D01*
X70967747Y-74683589D01*
X70923953Y-74618047D01*
X70858411Y-74574253D01*
X70476940Y-74192782D01*
X70476940Y-73711750D01*
X70409102Y-73370706D01*
X70233519Y-73107928D01*
X71991315Y-73107928D01*
X72066162Y-73122816D01*
X72141009Y-73107928D01*
X72141014Y-73107928D01*
X72233053Y-73089620D01*
X73528075Y-74384643D01*
X73490310Y-74369000D01*
X73249750Y-74369000D01*
X73091000Y-74527750D01*
X73091000Y-75327000D01*
X73111000Y-75327000D01*
X73111000Y-75581000D01*
X73091000Y-75581000D01*
X73091000Y-76380250D01*
X73176531Y-76465781D01*
X73056191Y-76546191D01*
X72915843Y-76756235D01*
X72866560Y-77004000D01*
X72866560Y-77904000D01*
X72915843Y-78151765D01*
X73056191Y-78361809D01*
X73058090Y-78363078D01*
X72979000Y-78554017D01*
X72979000Y-78925983D01*
X73121345Y-79269635D01*
X73154000Y-79302290D01*
X73154000Y-79521980D01*
X73116706Y-79529398D01*
X72827584Y-79722584D01*
X72634398Y-80011706D01*
X72566560Y-80352750D01*
X72566560Y-80840250D01*
X72634398Y-81181294D01*
X72827584Y-81470416D01*
X72922744Y-81534000D01*
X72827584Y-81597584D01*
X72634398Y-81886706D01*
X72566560Y-82227750D01*
X72566560Y-82715250D01*
X72634398Y-83056294D01*
X72827584Y-83345416D01*
X73116706Y-83538602D01*
X73457750Y-83606440D01*
X73968364Y-83606440D01*
X74173700Y-83743641D01*
X74395385Y-83787737D01*
X74395390Y-83787737D01*
X74470237Y-83802625D01*
X74545084Y-83787737D01*
X80504840Y-83787737D01*
X80579687Y-83802625D01*
X80654534Y-83787737D01*
X80654539Y-83787737D01*
X80876224Y-83743641D01*
X81127616Y-83575666D01*
X81170018Y-83512207D01*
X82258547Y-82423678D01*
X82681162Y-82423678D01*
X82681162Y-83187570D01*
X82777835Y-83420959D01*
X82956463Y-83599588D01*
X83189852Y-83696261D01*
X84770412Y-83696261D01*
X84929162Y-83537511D01*
X84929162Y-82264928D01*
X82839912Y-82264928D01*
X82681162Y-82423678D01*
X82258547Y-82423678D01*
X82755605Y-81926621D01*
X82839912Y-82010928D01*
X84929162Y-82010928D01*
X84929162Y-81990928D01*
X85183162Y-81990928D01*
X85183162Y-82010928D01*
X85203162Y-82010928D01*
X85203162Y-82264928D01*
X85183162Y-82264928D01*
X85183162Y-83537511D01*
X85341912Y-83696261D01*
X86922472Y-83696261D01*
X86961162Y-83680235D01*
X86961162Y-83807845D01*
X75909690Y-83887928D01*
X65888848Y-83887928D01*
X65958597Y-83874054D01*
X66249748Y-83679514D01*
X66444288Y-83388363D01*
X66512602Y-83044928D01*
X66512602Y-82695678D01*
X68331162Y-82695678D01*
X68331162Y-83336237D01*
X68427835Y-83569626D01*
X68606463Y-83748255D01*
X68839852Y-83844928D01*
X69480412Y-83844928D01*
X69639162Y-83686178D01*
X69639162Y-82536928D01*
X69893162Y-82536928D01*
X69893162Y-83686178D01*
X70051912Y-83844928D01*
X70692472Y-83844928D01*
X70925861Y-83748255D01*
X71104489Y-83569626D01*
X71201162Y-83336237D01*
X71201162Y-82695678D01*
X71042412Y-82536928D01*
X69893162Y-82536928D01*
X69639162Y-82536928D01*
X68489912Y-82536928D01*
X68331162Y-82695678D01*
X66512602Y-82695678D01*
X66512602Y-82294928D01*
X66444288Y-81951493D01*
X66249748Y-81660342D01*
X65958597Y-81465802D01*
X65615162Y-81397488D01*
X64365162Y-81397488D01*
X64021727Y-81465802D01*
X63730576Y-81660342D01*
X63696407Y-81711480D01*
X63664319Y-81550163D01*
X63523971Y-81340119D01*
X63408946Y-81263261D01*
X63425860Y-81256255D01*
X63604489Y-81077627D01*
X63661705Y-80939496D01*
X63755463Y-81033255D01*
X63988852Y-81129928D01*
X64704412Y-81129928D01*
X64863162Y-80971178D01*
X64863162Y-79996928D01*
X65117162Y-79996928D01*
X65117162Y-80971178D01*
X65275912Y-81129928D01*
X65991472Y-81129928D01*
X66224861Y-81033255D01*
X66403489Y-80854626D01*
X66500162Y-80621237D01*
X66500162Y-80155678D01*
X66341412Y-79996928D01*
X65117162Y-79996928D01*
X64863162Y-79996928D01*
X64843162Y-79996928D01*
X64843162Y-79742928D01*
X64863162Y-79742928D01*
X64863162Y-78768678D01*
X65117162Y-78768678D01*
X65117162Y-79742928D01*
X66341412Y-79742928D01*
X66500162Y-79584178D01*
X66500162Y-79118619D01*
X66403489Y-78885230D01*
X66224861Y-78706601D01*
X65991472Y-78609928D01*
X65275912Y-78609928D01*
X65117162Y-78768678D01*
X64863162Y-78768678D01*
X64704412Y-78609928D01*
X63988852Y-78609928D01*
X63755463Y-78706601D01*
X63576835Y-78885230D01*
X63504975Y-79058715D01*
X63425860Y-78979601D01*
X63408946Y-78972595D01*
X63523971Y-78895737D01*
X63664319Y-78685693D01*
X63713602Y-78437928D01*
X63713602Y-77247750D01*
X66298000Y-77247750D01*
X66298000Y-77963310D01*
X66394673Y-78196699D01*
X66573302Y-78375327D01*
X66806691Y-78472000D01*
X67272250Y-78472000D01*
X67431000Y-78313250D01*
X67431000Y-77089000D01*
X67685000Y-77089000D01*
X67685000Y-78313250D01*
X67843750Y-78472000D01*
X68309309Y-78472000D01*
X68542698Y-78375327D01*
X68721327Y-78196699D01*
X68818000Y-77963310D01*
X68818000Y-77247750D01*
X68659250Y-77089000D01*
X67685000Y-77089000D01*
X67431000Y-77089000D01*
X66456750Y-77089000D01*
X66298000Y-77247750D01*
X63713602Y-77247750D01*
X63713602Y-77237928D01*
X63664319Y-76990163D01*
X63523971Y-76780119D01*
X63313927Y-76639771D01*
X63066162Y-76590488D01*
X60866162Y-76590488D01*
X60618397Y-76639771D01*
X60408353Y-76780119D01*
X60268005Y-76990163D01*
X60218722Y-77237928D01*
X60218722Y-78437928D01*
X60268005Y-78685693D01*
X60408353Y-78895737D01*
X60523378Y-78972595D01*
X60506464Y-78979601D01*
X60327835Y-79158229D01*
X60231162Y-79391618D01*
X60231162Y-79832178D01*
X60389912Y-79990928D01*
X61839162Y-79990928D01*
X61839162Y-79970928D01*
X62093162Y-79970928D01*
X62093162Y-79990928D01*
X62113162Y-79990928D01*
X62113162Y-80244928D01*
X62093162Y-80244928D01*
X62093162Y-80264928D01*
X61839162Y-80264928D01*
X61839162Y-80244928D01*
X60389912Y-80244928D01*
X60231162Y-80403678D01*
X60231162Y-80844238D01*
X60327835Y-81077627D01*
X60506464Y-81256255D01*
X60523378Y-81263261D01*
X60408353Y-81340119D01*
X60268005Y-81550163D01*
X60218722Y-81797928D01*
X60218722Y-82997928D01*
X60268005Y-83245693D01*
X60408353Y-83455737D01*
X60618397Y-83596085D01*
X60866162Y-83645368D01*
X61268899Y-83645368D01*
X61413010Y-83865583D01*
X61445768Y-83887928D01*
X52476162Y-83887928D01*
X52476162Y-83652928D01*
X55380412Y-83652928D01*
X55539162Y-83494178D01*
X55539162Y-80244928D01*
X55793162Y-80244928D01*
X55793162Y-83494178D01*
X55951912Y-83652928D01*
X58992471Y-83652928D01*
X59225860Y-83556255D01*
X59404489Y-83377627D01*
X59501162Y-83144238D01*
X59501162Y-80403678D01*
X59342412Y-80244928D01*
X55793162Y-80244928D01*
X55539162Y-80244928D01*
X55519162Y-80244928D01*
X55519162Y-79990928D01*
X55539162Y-79990928D01*
X55539162Y-76741678D01*
X55793162Y-76741678D01*
X55793162Y-79990928D01*
X59342412Y-79990928D01*
X59501162Y-79832178D01*
X59501162Y-77091618D01*
X59404489Y-76858229D01*
X59225860Y-76679601D01*
X58992471Y-76582928D01*
X55951912Y-76582928D01*
X55793162Y-76741678D01*
X55539162Y-76741678D01*
X55380412Y-76582928D01*
X52476162Y-76582928D01*
X52476162Y-72167750D01*
X53366500Y-72167750D01*
X53366500Y-72870809D01*
X53463173Y-73104198D01*
X53641801Y-73282827D01*
X53875190Y-73379500D01*
X54578250Y-73379500D01*
X54737000Y-73220750D01*
X54737000Y-72009000D01*
X53525250Y-72009000D01*
X53366500Y-72167750D01*
X52476162Y-72167750D01*
X52476162Y-70893191D01*
X53366500Y-70893191D01*
X53366500Y-71596250D01*
X53525250Y-71755000D01*
X54737000Y-71755000D01*
X54737000Y-70543250D01*
X54991000Y-70543250D01*
X54991000Y-71755000D01*
X55011000Y-71755000D01*
X55011000Y-72009000D01*
X54991000Y-72009000D01*
X54991000Y-73220750D01*
X55149750Y-73379500D01*
X55852810Y-73379500D01*
X56086199Y-73282827D01*
X56264827Y-73104198D01*
X56336172Y-72931957D01*
X56555734Y-73151519D01*
X56590930Y-73166098D01*
X56633200Y-73378602D01*
X56640998Y-73417805D01*
X56820024Y-73685736D01*
X56887654Y-73730925D01*
X56939001Y-73782272D01*
X56984192Y-73849905D01*
X57252123Y-74028931D01*
X57488395Y-74075928D01*
X57568168Y-74091796D01*
X57647941Y-74075928D01*
X61202722Y-74075928D01*
X61202722Y-74349928D01*
X61252005Y-74597693D01*
X61392353Y-74807737D01*
X61602397Y-74948085D01*
X61850162Y-74997368D01*
X63050162Y-74997368D01*
X63297927Y-74948085D01*
X63507971Y-74807737D01*
X63648319Y-74597693D01*
X63697602Y-74349928D01*
X63697602Y-73449928D01*
X63648319Y-73202163D01*
X63507971Y-72992119D01*
X63297927Y-72851771D01*
X63050162Y-72802488D01*
X62498234Y-72802488D01*
X62445330Y-72749583D01*
X62400139Y-72681951D01*
X62132208Y-72502925D01*
X61895936Y-72455928D01*
X61895935Y-72455928D01*
X61816162Y-72440060D01*
X61736389Y-72455928D01*
X58787153Y-72455928D01*
X58901500Y-72179871D01*
X58901500Y-71584129D01*
X58673519Y-71033734D01*
X58252266Y-70612481D01*
X57701871Y-70384500D01*
X57106129Y-70384500D01*
X56555734Y-70612481D01*
X56336172Y-70832043D01*
X56264827Y-70659802D01*
X56086199Y-70481173D01*
X55852810Y-70384500D01*
X55149750Y-70384500D01*
X54991000Y-70543250D01*
X54737000Y-70543250D01*
X54578250Y-70384500D01*
X53875190Y-70384500D01*
X53641801Y-70481173D01*
X53463173Y-70659802D01*
X53366500Y-70893191D01*
X52476162Y-70893191D01*
X52476162Y-70149928D01*
X61202722Y-70149928D01*
X61202722Y-71049928D01*
X61252005Y-71297693D01*
X61392353Y-71507737D01*
X61602397Y-71648085D01*
X61850162Y-71697368D01*
X63050162Y-71697368D01*
X63297927Y-71648085D01*
X63507971Y-71507737D01*
X63606735Y-71359928D01*
X63899864Y-71359928D01*
X63902005Y-71370693D01*
X63980340Y-71487928D01*
X63902005Y-71605163D01*
X63852722Y-71852928D01*
X63852722Y-72722928D01*
X63902005Y-72970693D01*
X64042353Y-73180737D01*
X64230162Y-73306228D01*
X64230162Y-73895221D01*
X64089000Y-74236017D01*
X64089000Y-74607983D01*
X64231345Y-74951635D01*
X64494365Y-75214655D01*
X64838017Y-75357000D01*
X65209983Y-75357000D01*
X65553635Y-75214655D01*
X65816655Y-74951635D01*
X65959000Y-74607983D01*
X65959000Y-74236017D01*
X65816655Y-73892365D01*
X65750162Y-73825872D01*
X65750162Y-73306228D01*
X65937971Y-73180737D01*
X66078319Y-72970693D01*
X66127602Y-72722928D01*
X66127602Y-71852928D01*
X66078319Y-71605163D01*
X65999984Y-71487928D01*
X66078319Y-71370693D01*
X66127602Y-71122928D01*
X66127602Y-70252928D01*
X66078319Y-70005163D01*
X65937971Y-69795119D01*
X65727927Y-69654771D01*
X65480162Y-69605488D01*
X64500162Y-69605488D01*
X64252397Y-69654771D01*
X64042353Y-69795119D01*
X64012412Y-69839928D01*
X63606735Y-69839928D01*
X63507971Y-69692119D01*
X63297927Y-69551771D01*
X63050162Y-69502488D01*
X61850162Y-69502488D01*
X61602397Y-69551771D01*
X61392353Y-69692119D01*
X61252005Y-69902163D01*
X61202722Y-70149928D01*
X52476162Y-70149928D01*
X52476162Y-69307928D01*
X67556189Y-69307928D01*
X67358353Y-69440119D01*
G36*
X76251750Y-73446440D02*
X77054423Y-73446440D01*
X77043000Y-73474017D01*
X77043000Y-73845983D01*
X77185345Y-74189635D01*
X77448365Y-74452655D01*
X77792017Y-74595000D01*
X78163983Y-74595000D01*
X78507635Y-74452655D01*
X78770655Y-74189635D01*
X78868742Y-73952833D01*
X78945853Y-74068237D01*
X79155897Y-74208585D01*
X79184133Y-74214201D01*
X79098480Y-74299854D01*
X79213150Y-74414524D01*
X78960556Y-74496330D01*
X78757007Y-75056221D01*
X78783214Y-75651387D01*
X78960556Y-76079526D01*
X79213152Y-76161333D01*
X80086557Y-75287928D01*
X80072415Y-75273786D01*
X80252020Y-75094181D01*
X80266162Y-75108323D01*
X80280305Y-75094181D01*
X80459910Y-75273786D01*
X80445767Y-75287928D01*
X80459910Y-75302071D01*
X80280305Y-75481676D01*
X80266162Y-75467533D01*
X79392757Y-76340938D01*
X79457831Y-76541867D01*
X79417896Y-76558409D01*
X79222269Y-76754036D01*
X79205333Y-76668892D01*
X79037358Y-76417500D01*
X78973902Y-76375100D01*
X76028331Y-73429530D01*
X76007116Y-73397779D01*
X76251750Y-73446440D01*
X76251750Y-73446440D01*
G37*
X76251750Y-73446440D02*
X77054423Y-73446440D01*
X77043000Y-73474017D01*
X77043000Y-73845983D01*
X77185345Y-74189635D01*
X77448365Y-74452655D01*
X77792017Y-74595000D01*
X78163983Y-74595000D01*
X78507635Y-74452655D01*
X78770655Y-74189635D01*
X78868742Y-73952833D01*
X78945853Y-74068237D01*
X79155897Y-74208585D01*
X79184133Y-74214201D01*
X79098480Y-74299854D01*
X79213150Y-74414524D01*
X78960556Y-74496330D01*
X78757007Y-75056221D01*
X78783214Y-75651387D01*
X78960556Y-76079526D01*
X79213152Y-76161333D01*
X80086557Y-75287928D01*
X80072415Y-75273786D01*
X80252020Y-75094181D01*
X80266162Y-75108323D01*
X80280305Y-75094181D01*
X80459910Y-75273786D01*
X80445767Y-75287928D01*
X80459910Y-75302071D01*
X80280305Y-75481676D01*
X80266162Y-75467533D01*
X79392757Y-76340938D01*
X79457831Y-76541867D01*
X79417896Y-76558409D01*
X79222269Y-76754036D01*
X79205333Y-76668892D01*
X79037358Y-76417500D01*
X78973902Y-76375100D01*
X76028331Y-73429530D01*
X76007116Y-73397779D01*
X76251750Y-73446440D01*
G36*
X75910706Y-69369398D02*
X75621584Y-69562584D01*
X75428398Y-69851706D01*
X75401162Y-69988630D01*
X75401162Y-69971618D01*
X75304489Y-69738229D01*
X75125860Y-69559601D01*
X74892471Y-69462928D01*
X74601912Y-69462928D01*
X74443162Y-69621678D01*
X74443162Y-70370928D01*
X74463162Y-70370928D01*
X74463162Y-70624928D01*
X74443162Y-70624928D01*
X74443162Y-70644928D01*
X74189162Y-70644928D01*
X74189162Y-70624928D01*
X73389912Y-70624928D01*
X73304381Y-70710459D01*
X73223971Y-70590119D01*
X73013927Y-70449771D01*
X72766162Y-70400488D01*
X71866162Y-70400488D01*
X71618397Y-70449771D01*
X71408353Y-70590119D01*
X71268005Y-70800163D01*
X71218722Y-71047928D01*
X71218722Y-71587928D01*
X70122735Y-71587928D01*
X70023971Y-71440119D01*
X69903631Y-71359709D01*
X69989162Y-71274178D01*
X69989162Y-70474928D01*
X70243162Y-70474928D01*
X70243162Y-71274178D01*
X70401912Y-71432928D01*
X70642472Y-71432928D01*
X70875861Y-71336255D01*
X71054489Y-71157626D01*
X71151162Y-70924237D01*
X71151162Y-70633678D01*
X70992412Y-70474928D01*
X70243162Y-70474928D01*
X69989162Y-70474928D01*
X69969162Y-70474928D01*
X69969162Y-70220928D01*
X69989162Y-70220928D01*
X69989162Y-70200928D01*
X70243162Y-70200928D01*
X70243162Y-70220928D01*
X70992412Y-70220928D01*
X71151162Y-70062178D01*
X71151162Y-69971618D01*
X73231162Y-69971618D01*
X73231162Y-70212178D01*
X73389912Y-70370928D01*
X74189162Y-70370928D01*
X74189162Y-69621678D01*
X74030412Y-69462928D01*
X73739853Y-69462928D01*
X73506464Y-69559601D01*
X73327835Y-69738229D01*
X73231162Y-69971618D01*
X71151162Y-69971618D01*
X71151162Y-69771619D01*
X71054489Y-69538230D01*
X70875861Y-69359601D01*
X70751111Y-69307928D01*
X76219736Y-69307928D01*
X75910706Y-69369398D01*
X75910706Y-69369398D01*
G37*
X75910706Y-69369398D02*
X75621584Y-69562584D01*
X75428398Y-69851706D01*
X75401162Y-69988630D01*
X75401162Y-69971618D01*
X75304489Y-69738229D01*
X75125860Y-69559601D01*
X74892471Y-69462928D01*
X74601912Y-69462928D01*
X74443162Y-69621678D01*
X74443162Y-70370928D01*
X74463162Y-70370928D01*
X74463162Y-70624928D01*
X74443162Y-70624928D01*
X74443162Y-70644928D01*
X74189162Y-70644928D01*
X74189162Y-70624928D01*
X73389912Y-70624928D01*
X73304381Y-70710459D01*
X73223971Y-70590119D01*
X73013927Y-70449771D01*
X72766162Y-70400488D01*
X71866162Y-70400488D01*
X71618397Y-70449771D01*
X71408353Y-70590119D01*
X71268005Y-70800163D01*
X71218722Y-71047928D01*
X71218722Y-71587928D01*
X70122735Y-71587928D01*
X70023971Y-71440119D01*
X69903631Y-71359709D01*
X69989162Y-71274178D01*
X69989162Y-70474928D01*
X70243162Y-70474928D01*
X70243162Y-71274178D01*
X70401912Y-71432928D01*
X70642472Y-71432928D01*
X70875861Y-71336255D01*
X71054489Y-71157626D01*
X71151162Y-70924237D01*
X71151162Y-70633678D01*
X70992412Y-70474928D01*
X70243162Y-70474928D01*
X69989162Y-70474928D01*
X69969162Y-70474928D01*
X69969162Y-70220928D01*
X69989162Y-70220928D01*
X69989162Y-70200928D01*
X70243162Y-70200928D01*
X70243162Y-70220928D01*
X70992412Y-70220928D01*
X71151162Y-70062178D01*
X71151162Y-69971618D01*
X73231162Y-69971618D01*
X73231162Y-70212178D01*
X73389912Y-70370928D01*
X74189162Y-70370928D01*
X74189162Y-69621678D01*
X74030412Y-69462928D01*
X73739853Y-69462928D01*
X73506464Y-69559601D01*
X73327835Y-69738229D01*
X73231162Y-69971618D01*
X71151162Y-69971618D01*
X71151162Y-69771619D01*
X71054489Y-69538230D01*
X70875861Y-69359601D01*
X70751111Y-69307928D01*
X76219736Y-69307928D01*
X75910706Y-69369398D01*
G04 #@! TD*
M02*
