G04 #@! TF.GenerationSoftware,KiCad,Pcbnew,(5.0.0)*
G04 #@! TF.CreationDate,2018-12-07T10:27:40+01:00*
G04 #@! TF.ProjectId,SoNavi,536F4E6176692E6B696361645F706362,rev?*
G04 #@! TF.SameCoordinates,Original*
G04 #@! TF.FileFunction,Soldermask,Top*
G04 #@! TF.FilePolarity,Negative*
%FSLAX46Y46*%
G04 Gerber Fmt 4.6, Leading zero omitted, Abs format (unit mm)*
G04 Created by KiCad (PCBNEW (5.0.0)) date 12/07/18 10:27:40*
%MOMM*%
%LPD*%
G01*
G04 APERTURE LIST*
%ADD10C,0.300000*%
%ADD11C,1.375000*%
%ADD12R,1.200000X1.300000*%
%ADD13R,1.300000X1.200000*%
%ADD14R,2.600000X1.600000*%
%ADD15R,6.800000X6.200000*%
%ADD16C,1.650000*%
%ADD17R,3.880000X2.246667*%
%ADD18R,2.125000X2.125000*%
%ADD19C,2.125000*%
%ADD20R,2.000000X2.000000*%
%ADD21C,2.000000*%
%ADD22R,1.600000X1.300000*%
%ADD23R,1.380000X1.270000*%
G04 APERTURE END LIST*
D10*
G04 #@! TO.C,R2*
G36*
X78059943Y-79324155D02*
X78093312Y-79329105D01*
X78126035Y-79337302D01*
X78157797Y-79348666D01*
X78188293Y-79363090D01*
X78217227Y-79380432D01*
X78244323Y-79400528D01*
X78269318Y-79423182D01*
X78291972Y-79448177D01*
X78312068Y-79475273D01*
X78329410Y-79504207D01*
X78343834Y-79534703D01*
X78355198Y-79566465D01*
X78363395Y-79599188D01*
X78368345Y-79632557D01*
X78370000Y-79666250D01*
X78370000Y-80353750D01*
X78368345Y-80387443D01*
X78363395Y-80420812D01*
X78355198Y-80453535D01*
X78343834Y-80485297D01*
X78329410Y-80515793D01*
X78312068Y-80544727D01*
X78291972Y-80571823D01*
X78269318Y-80596818D01*
X78244323Y-80619472D01*
X78217227Y-80639568D01*
X78188293Y-80656910D01*
X78157797Y-80671334D01*
X78126035Y-80682698D01*
X78093312Y-80690895D01*
X78059943Y-80695845D01*
X78026250Y-80697500D01*
X76913750Y-80697500D01*
X76880057Y-80695845D01*
X76846688Y-80690895D01*
X76813965Y-80682698D01*
X76782203Y-80671334D01*
X76751707Y-80656910D01*
X76722773Y-80639568D01*
X76695677Y-80619472D01*
X76670682Y-80596818D01*
X76648028Y-80571823D01*
X76627932Y-80544727D01*
X76610590Y-80515793D01*
X76596166Y-80485297D01*
X76584802Y-80453535D01*
X76576605Y-80420812D01*
X76571655Y-80387443D01*
X76570000Y-80353750D01*
X76570000Y-79666250D01*
X76571655Y-79632557D01*
X76576605Y-79599188D01*
X76584802Y-79566465D01*
X76596166Y-79534703D01*
X76610590Y-79504207D01*
X76627932Y-79475273D01*
X76648028Y-79448177D01*
X76670682Y-79423182D01*
X76695677Y-79400528D01*
X76722773Y-79380432D01*
X76751707Y-79363090D01*
X76782203Y-79348666D01*
X76813965Y-79337302D01*
X76846688Y-79329105D01*
X76880057Y-79324155D01*
X76913750Y-79322500D01*
X78026250Y-79322500D01*
X78059943Y-79324155D01*
X78059943Y-79324155D01*
G37*
D11*
X77470000Y-80010000D03*
D10*
G36*
X78059943Y-81199155D02*
X78093312Y-81204105D01*
X78126035Y-81212302D01*
X78157797Y-81223666D01*
X78188293Y-81238090D01*
X78217227Y-81255432D01*
X78244323Y-81275528D01*
X78269318Y-81298182D01*
X78291972Y-81323177D01*
X78312068Y-81350273D01*
X78329410Y-81379207D01*
X78343834Y-81409703D01*
X78355198Y-81441465D01*
X78363395Y-81474188D01*
X78368345Y-81507557D01*
X78370000Y-81541250D01*
X78370000Y-82228750D01*
X78368345Y-82262443D01*
X78363395Y-82295812D01*
X78355198Y-82328535D01*
X78343834Y-82360297D01*
X78329410Y-82390793D01*
X78312068Y-82419727D01*
X78291972Y-82446823D01*
X78269318Y-82471818D01*
X78244323Y-82494472D01*
X78217227Y-82514568D01*
X78188293Y-82531910D01*
X78157797Y-82546334D01*
X78126035Y-82557698D01*
X78093312Y-82565895D01*
X78059943Y-82570845D01*
X78026250Y-82572500D01*
X76913750Y-82572500D01*
X76880057Y-82570845D01*
X76846688Y-82565895D01*
X76813965Y-82557698D01*
X76782203Y-82546334D01*
X76751707Y-82531910D01*
X76722773Y-82514568D01*
X76695677Y-82494472D01*
X76670682Y-82471818D01*
X76648028Y-82446823D01*
X76627932Y-82419727D01*
X76610590Y-82390793D01*
X76596166Y-82360297D01*
X76584802Y-82328535D01*
X76576605Y-82295812D01*
X76571655Y-82262443D01*
X76570000Y-82228750D01*
X76570000Y-81541250D01*
X76571655Y-81507557D01*
X76576605Y-81474188D01*
X76584802Y-81441465D01*
X76596166Y-81409703D01*
X76610590Y-81379207D01*
X76627932Y-81350273D01*
X76648028Y-81323177D01*
X76670682Y-81298182D01*
X76695677Y-81275528D01*
X76722773Y-81255432D01*
X76751707Y-81238090D01*
X76782203Y-81223666D01*
X76813965Y-81212302D01*
X76846688Y-81204105D01*
X76880057Y-81199155D01*
X76913750Y-81197500D01*
X78026250Y-81197500D01*
X78059943Y-81199155D01*
X78059943Y-81199155D01*
G37*
D11*
X77470000Y-81885000D03*
G04 #@! TD*
D12*
G04 #@! TO.C,Q1*
X74864000Y-75454000D03*
X72964000Y-75454000D03*
X73914000Y-77454000D03*
G04 #@! TD*
D13*
G04 #@! TO.C,Q2*
X72316162Y-71447928D03*
X74316162Y-70497928D03*
X74316162Y-72397928D03*
G04 #@! TD*
D10*
G04 #@! TO.C,R1*
G36*
X74503943Y-81785655D02*
X74537312Y-81790605D01*
X74570035Y-81798802D01*
X74601797Y-81810166D01*
X74632293Y-81824590D01*
X74661227Y-81841932D01*
X74688323Y-81862028D01*
X74713318Y-81884682D01*
X74735972Y-81909677D01*
X74756068Y-81936773D01*
X74773410Y-81965707D01*
X74787834Y-81996203D01*
X74799198Y-82027965D01*
X74807395Y-82060688D01*
X74812345Y-82094057D01*
X74814000Y-82127750D01*
X74814000Y-82815250D01*
X74812345Y-82848943D01*
X74807395Y-82882312D01*
X74799198Y-82915035D01*
X74787834Y-82946797D01*
X74773410Y-82977293D01*
X74756068Y-83006227D01*
X74735972Y-83033323D01*
X74713318Y-83058318D01*
X74688323Y-83080972D01*
X74661227Y-83101068D01*
X74632293Y-83118410D01*
X74601797Y-83132834D01*
X74570035Y-83144198D01*
X74537312Y-83152395D01*
X74503943Y-83157345D01*
X74470250Y-83159000D01*
X73357750Y-83159000D01*
X73324057Y-83157345D01*
X73290688Y-83152395D01*
X73257965Y-83144198D01*
X73226203Y-83132834D01*
X73195707Y-83118410D01*
X73166773Y-83101068D01*
X73139677Y-83080972D01*
X73114682Y-83058318D01*
X73092028Y-83033323D01*
X73071932Y-83006227D01*
X73054590Y-82977293D01*
X73040166Y-82946797D01*
X73028802Y-82915035D01*
X73020605Y-82882312D01*
X73015655Y-82848943D01*
X73014000Y-82815250D01*
X73014000Y-82127750D01*
X73015655Y-82094057D01*
X73020605Y-82060688D01*
X73028802Y-82027965D01*
X73040166Y-81996203D01*
X73054590Y-81965707D01*
X73071932Y-81936773D01*
X73092028Y-81909677D01*
X73114682Y-81884682D01*
X73139677Y-81862028D01*
X73166773Y-81841932D01*
X73195707Y-81824590D01*
X73226203Y-81810166D01*
X73257965Y-81798802D01*
X73290688Y-81790605D01*
X73324057Y-81785655D01*
X73357750Y-81784000D01*
X74470250Y-81784000D01*
X74503943Y-81785655D01*
X74503943Y-81785655D01*
G37*
D11*
X73914000Y-82471500D03*
D10*
G36*
X74503943Y-79910655D02*
X74537312Y-79915605D01*
X74570035Y-79923802D01*
X74601797Y-79935166D01*
X74632293Y-79949590D01*
X74661227Y-79966932D01*
X74688323Y-79987028D01*
X74713318Y-80009682D01*
X74735972Y-80034677D01*
X74756068Y-80061773D01*
X74773410Y-80090707D01*
X74787834Y-80121203D01*
X74799198Y-80152965D01*
X74807395Y-80185688D01*
X74812345Y-80219057D01*
X74814000Y-80252750D01*
X74814000Y-80940250D01*
X74812345Y-80973943D01*
X74807395Y-81007312D01*
X74799198Y-81040035D01*
X74787834Y-81071797D01*
X74773410Y-81102293D01*
X74756068Y-81131227D01*
X74735972Y-81158323D01*
X74713318Y-81183318D01*
X74688323Y-81205972D01*
X74661227Y-81226068D01*
X74632293Y-81243410D01*
X74601797Y-81257834D01*
X74570035Y-81269198D01*
X74537312Y-81277395D01*
X74503943Y-81282345D01*
X74470250Y-81284000D01*
X73357750Y-81284000D01*
X73324057Y-81282345D01*
X73290688Y-81277395D01*
X73257965Y-81269198D01*
X73226203Y-81257834D01*
X73195707Y-81243410D01*
X73166773Y-81226068D01*
X73139677Y-81205972D01*
X73114682Y-81183318D01*
X73092028Y-81158323D01*
X73071932Y-81131227D01*
X73054590Y-81102293D01*
X73040166Y-81071797D01*
X73028802Y-81040035D01*
X73020605Y-81007312D01*
X73015655Y-80973943D01*
X73014000Y-80940250D01*
X73014000Y-80252750D01*
X73015655Y-80219057D01*
X73020605Y-80185688D01*
X73028802Y-80152965D01*
X73040166Y-80121203D01*
X73054590Y-80090707D01*
X73071932Y-80061773D01*
X73092028Y-80034677D01*
X73114682Y-80009682D01*
X73139677Y-79987028D01*
X73166773Y-79966932D01*
X73195707Y-79949590D01*
X73226203Y-79935166D01*
X73257965Y-79923802D01*
X73290688Y-79915605D01*
X73324057Y-79910655D01*
X73357750Y-79909000D01*
X74470250Y-79909000D01*
X74503943Y-79910655D01*
X74503943Y-79910655D01*
G37*
D11*
X73914000Y-80596500D03*
G04 #@! TD*
D10*
G04 #@! TO.C,R3*
G36*
X77297943Y-71625655D02*
X77331312Y-71630605D01*
X77364035Y-71638802D01*
X77395797Y-71650166D01*
X77426293Y-71664590D01*
X77455227Y-71681932D01*
X77482323Y-71702028D01*
X77507318Y-71724682D01*
X77529972Y-71749677D01*
X77550068Y-71776773D01*
X77567410Y-71805707D01*
X77581834Y-71836203D01*
X77593198Y-71867965D01*
X77601395Y-71900688D01*
X77606345Y-71934057D01*
X77608000Y-71967750D01*
X77608000Y-72655250D01*
X77606345Y-72688943D01*
X77601395Y-72722312D01*
X77593198Y-72755035D01*
X77581834Y-72786797D01*
X77567410Y-72817293D01*
X77550068Y-72846227D01*
X77529972Y-72873323D01*
X77507318Y-72898318D01*
X77482323Y-72920972D01*
X77455227Y-72941068D01*
X77426293Y-72958410D01*
X77395797Y-72972834D01*
X77364035Y-72984198D01*
X77331312Y-72992395D01*
X77297943Y-72997345D01*
X77264250Y-72999000D01*
X76151750Y-72999000D01*
X76118057Y-72997345D01*
X76084688Y-72992395D01*
X76051965Y-72984198D01*
X76020203Y-72972834D01*
X75989707Y-72958410D01*
X75960773Y-72941068D01*
X75933677Y-72920972D01*
X75908682Y-72898318D01*
X75886028Y-72873323D01*
X75865932Y-72846227D01*
X75848590Y-72817293D01*
X75834166Y-72786797D01*
X75822802Y-72755035D01*
X75814605Y-72722312D01*
X75809655Y-72688943D01*
X75808000Y-72655250D01*
X75808000Y-71967750D01*
X75809655Y-71934057D01*
X75814605Y-71900688D01*
X75822802Y-71867965D01*
X75834166Y-71836203D01*
X75848590Y-71805707D01*
X75865932Y-71776773D01*
X75886028Y-71749677D01*
X75908682Y-71724682D01*
X75933677Y-71702028D01*
X75960773Y-71681932D01*
X75989707Y-71664590D01*
X76020203Y-71650166D01*
X76051965Y-71638802D01*
X76084688Y-71630605D01*
X76118057Y-71625655D01*
X76151750Y-71624000D01*
X77264250Y-71624000D01*
X77297943Y-71625655D01*
X77297943Y-71625655D01*
G37*
D11*
X76708000Y-72311500D03*
D10*
G36*
X77297943Y-69750655D02*
X77331312Y-69755605D01*
X77364035Y-69763802D01*
X77395797Y-69775166D01*
X77426293Y-69789590D01*
X77455227Y-69806932D01*
X77482323Y-69827028D01*
X77507318Y-69849682D01*
X77529972Y-69874677D01*
X77550068Y-69901773D01*
X77567410Y-69930707D01*
X77581834Y-69961203D01*
X77593198Y-69992965D01*
X77601395Y-70025688D01*
X77606345Y-70059057D01*
X77608000Y-70092750D01*
X77608000Y-70780250D01*
X77606345Y-70813943D01*
X77601395Y-70847312D01*
X77593198Y-70880035D01*
X77581834Y-70911797D01*
X77567410Y-70942293D01*
X77550068Y-70971227D01*
X77529972Y-70998323D01*
X77507318Y-71023318D01*
X77482323Y-71045972D01*
X77455227Y-71066068D01*
X77426293Y-71083410D01*
X77395797Y-71097834D01*
X77364035Y-71109198D01*
X77331312Y-71117395D01*
X77297943Y-71122345D01*
X77264250Y-71124000D01*
X76151750Y-71124000D01*
X76118057Y-71122345D01*
X76084688Y-71117395D01*
X76051965Y-71109198D01*
X76020203Y-71097834D01*
X75989707Y-71083410D01*
X75960773Y-71066068D01*
X75933677Y-71045972D01*
X75908682Y-71023318D01*
X75886028Y-70998323D01*
X75865932Y-70971227D01*
X75848590Y-70942293D01*
X75834166Y-70911797D01*
X75822802Y-70880035D01*
X75814605Y-70847312D01*
X75809655Y-70813943D01*
X75808000Y-70780250D01*
X75808000Y-70092750D01*
X75809655Y-70059057D01*
X75814605Y-70025688D01*
X75822802Y-69992965D01*
X75834166Y-69961203D01*
X75848590Y-69930707D01*
X75865932Y-69901773D01*
X75886028Y-69874677D01*
X75908682Y-69849682D01*
X75933677Y-69827028D01*
X75960773Y-69806932D01*
X75989707Y-69789590D01*
X76020203Y-69775166D01*
X76051965Y-69763802D01*
X76084688Y-69755605D01*
X76118057Y-69750655D01*
X76151750Y-69749000D01*
X77264250Y-69749000D01*
X77297943Y-69750655D01*
X77297943Y-69750655D01*
G37*
D11*
X76708000Y-70436500D03*
G04 #@! TD*
D10*
G04 #@! TO.C,R4*
G36*
X69719443Y-73269655D02*
X69752812Y-73274605D01*
X69785535Y-73282802D01*
X69817297Y-73294166D01*
X69847793Y-73308590D01*
X69876727Y-73325932D01*
X69903823Y-73346028D01*
X69928818Y-73368682D01*
X69951472Y-73393677D01*
X69971568Y-73420773D01*
X69988910Y-73449707D01*
X70003334Y-73480203D01*
X70014698Y-73511965D01*
X70022895Y-73544688D01*
X70027845Y-73578057D01*
X70029500Y-73611750D01*
X70029500Y-74724250D01*
X70027845Y-74757943D01*
X70022895Y-74791312D01*
X70014698Y-74824035D01*
X70003334Y-74855797D01*
X69988910Y-74886293D01*
X69971568Y-74915227D01*
X69951472Y-74942323D01*
X69928818Y-74967318D01*
X69903823Y-74989972D01*
X69876727Y-75010068D01*
X69847793Y-75027410D01*
X69817297Y-75041834D01*
X69785535Y-75053198D01*
X69752812Y-75061395D01*
X69719443Y-75066345D01*
X69685750Y-75068000D01*
X68998250Y-75068000D01*
X68964557Y-75066345D01*
X68931188Y-75061395D01*
X68898465Y-75053198D01*
X68866703Y-75041834D01*
X68836207Y-75027410D01*
X68807273Y-75010068D01*
X68780177Y-74989972D01*
X68755182Y-74967318D01*
X68732528Y-74942323D01*
X68712432Y-74915227D01*
X68695090Y-74886293D01*
X68680666Y-74855797D01*
X68669302Y-74824035D01*
X68661105Y-74791312D01*
X68656155Y-74757943D01*
X68654500Y-74724250D01*
X68654500Y-73611750D01*
X68656155Y-73578057D01*
X68661105Y-73544688D01*
X68669302Y-73511965D01*
X68680666Y-73480203D01*
X68695090Y-73449707D01*
X68712432Y-73420773D01*
X68732528Y-73393677D01*
X68755182Y-73368682D01*
X68780177Y-73346028D01*
X68807273Y-73325932D01*
X68836207Y-73308590D01*
X68866703Y-73294166D01*
X68898465Y-73282802D01*
X68931188Y-73274605D01*
X68964557Y-73269655D01*
X68998250Y-73268000D01*
X69685750Y-73268000D01*
X69719443Y-73269655D01*
X69719443Y-73269655D01*
G37*
D11*
X69342000Y-74168000D03*
D10*
G36*
X67844443Y-73269655D02*
X67877812Y-73274605D01*
X67910535Y-73282802D01*
X67942297Y-73294166D01*
X67972793Y-73308590D01*
X68001727Y-73325932D01*
X68028823Y-73346028D01*
X68053818Y-73368682D01*
X68076472Y-73393677D01*
X68096568Y-73420773D01*
X68113910Y-73449707D01*
X68128334Y-73480203D01*
X68139698Y-73511965D01*
X68147895Y-73544688D01*
X68152845Y-73578057D01*
X68154500Y-73611750D01*
X68154500Y-74724250D01*
X68152845Y-74757943D01*
X68147895Y-74791312D01*
X68139698Y-74824035D01*
X68128334Y-74855797D01*
X68113910Y-74886293D01*
X68096568Y-74915227D01*
X68076472Y-74942323D01*
X68053818Y-74967318D01*
X68028823Y-74989972D01*
X68001727Y-75010068D01*
X67972793Y-75027410D01*
X67942297Y-75041834D01*
X67910535Y-75053198D01*
X67877812Y-75061395D01*
X67844443Y-75066345D01*
X67810750Y-75068000D01*
X67123250Y-75068000D01*
X67089557Y-75066345D01*
X67056188Y-75061395D01*
X67023465Y-75053198D01*
X66991703Y-75041834D01*
X66961207Y-75027410D01*
X66932273Y-75010068D01*
X66905177Y-74989972D01*
X66880182Y-74967318D01*
X66857528Y-74942323D01*
X66837432Y-74915227D01*
X66820090Y-74886293D01*
X66805666Y-74855797D01*
X66794302Y-74824035D01*
X66786105Y-74791312D01*
X66781155Y-74757943D01*
X66779500Y-74724250D01*
X66779500Y-73611750D01*
X66781155Y-73578057D01*
X66786105Y-73544688D01*
X66794302Y-73511965D01*
X66805666Y-73480203D01*
X66820090Y-73449707D01*
X66837432Y-73420773D01*
X66857528Y-73393677D01*
X66880182Y-73368682D01*
X66905177Y-73346028D01*
X66932273Y-73325932D01*
X66961207Y-73308590D01*
X66991703Y-73294166D01*
X67023465Y-73282802D01*
X67056188Y-73274605D01*
X67089557Y-73269655D01*
X67123250Y-73268000D01*
X67810750Y-73268000D01*
X67844443Y-73269655D01*
X67844443Y-73269655D01*
G37*
D11*
X67467000Y-74168000D03*
G04 #@! TD*
D12*
G04 #@! TO.C,D1*
X70116162Y-70347928D03*
X68216162Y-70347928D03*
X69166162Y-72347928D03*
G04 #@! TD*
D14*
G04 #@! TO.C,U1*
X61966162Y-82397928D03*
X61966162Y-80117928D03*
X61966162Y-77837928D03*
D15*
X55666162Y-80117928D03*
G04 #@! TD*
D10*
G04 #@! TO.C,C1*
G36*
X65767508Y-79046517D02*
X65799542Y-79051269D01*
X65830956Y-79059138D01*
X65861448Y-79070048D01*
X65890723Y-79083894D01*
X65918500Y-79100543D01*
X65944512Y-79119835D01*
X65968507Y-79141583D01*
X65990255Y-79165578D01*
X66009547Y-79191590D01*
X66026196Y-79219367D01*
X66040042Y-79248642D01*
X66050952Y-79279134D01*
X66058821Y-79310548D01*
X66063573Y-79342582D01*
X66065162Y-79374928D01*
X66065162Y-80364928D01*
X66063573Y-80397274D01*
X66058821Y-80429308D01*
X66050952Y-80460722D01*
X66040042Y-80491214D01*
X66026196Y-80520489D01*
X66009547Y-80548266D01*
X65990255Y-80574278D01*
X65968507Y-80598273D01*
X65944512Y-80620021D01*
X65918500Y-80639313D01*
X65890723Y-80655962D01*
X65861448Y-80669808D01*
X65830956Y-80680718D01*
X65799542Y-80688587D01*
X65767508Y-80693339D01*
X65735162Y-80694928D01*
X64245162Y-80694928D01*
X64212816Y-80693339D01*
X64180782Y-80688587D01*
X64149368Y-80680718D01*
X64118876Y-80669808D01*
X64089601Y-80655962D01*
X64061824Y-80639313D01*
X64035812Y-80620021D01*
X64011817Y-80598273D01*
X63990069Y-80574278D01*
X63970777Y-80548266D01*
X63954128Y-80520489D01*
X63940282Y-80491214D01*
X63929372Y-80460722D01*
X63921503Y-80429308D01*
X63916751Y-80397274D01*
X63915162Y-80364928D01*
X63915162Y-79374928D01*
X63916751Y-79342582D01*
X63921503Y-79310548D01*
X63929372Y-79279134D01*
X63940282Y-79248642D01*
X63954128Y-79219367D01*
X63970777Y-79191590D01*
X63990069Y-79165578D01*
X64011817Y-79141583D01*
X64035812Y-79119835D01*
X64061824Y-79100543D01*
X64089601Y-79083894D01*
X64118876Y-79070048D01*
X64149368Y-79059138D01*
X64180782Y-79051269D01*
X64212816Y-79046517D01*
X64245162Y-79044928D01*
X65735162Y-79044928D01*
X65767508Y-79046517D01*
X65767508Y-79046517D01*
G37*
D16*
X64990162Y-79869928D03*
D10*
G36*
X65767508Y-81846517D02*
X65799542Y-81851269D01*
X65830956Y-81859138D01*
X65861448Y-81870048D01*
X65890723Y-81883894D01*
X65918500Y-81900543D01*
X65944512Y-81919835D01*
X65968507Y-81941583D01*
X65990255Y-81965578D01*
X66009547Y-81991590D01*
X66026196Y-82019367D01*
X66040042Y-82048642D01*
X66050952Y-82079134D01*
X66058821Y-82110548D01*
X66063573Y-82142582D01*
X66065162Y-82174928D01*
X66065162Y-83164928D01*
X66063573Y-83197274D01*
X66058821Y-83229308D01*
X66050952Y-83260722D01*
X66040042Y-83291214D01*
X66026196Y-83320489D01*
X66009547Y-83348266D01*
X65990255Y-83374278D01*
X65968507Y-83398273D01*
X65944512Y-83420021D01*
X65918500Y-83439313D01*
X65890723Y-83455962D01*
X65861448Y-83469808D01*
X65830956Y-83480718D01*
X65799542Y-83488587D01*
X65767508Y-83493339D01*
X65735162Y-83494928D01*
X64245162Y-83494928D01*
X64212816Y-83493339D01*
X64180782Y-83488587D01*
X64149368Y-83480718D01*
X64118876Y-83469808D01*
X64089601Y-83455962D01*
X64061824Y-83439313D01*
X64035812Y-83420021D01*
X64011817Y-83398273D01*
X63990069Y-83374278D01*
X63970777Y-83348266D01*
X63954128Y-83320489D01*
X63940282Y-83291214D01*
X63929372Y-83260722D01*
X63921503Y-83229308D01*
X63916751Y-83197274D01*
X63915162Y-83164928D01*
X63915162Y-82174928D01*
X63916751Y-82142582D01*
X63921503Y-82110548D01*
X63929372Y-82079134D01*
X63940282Y-82048642D01*
X63954128Y-82019367D01*
X63970777Y-81991590D01*
X63990069Y-81965578D01*
X64011817Y-81941583D01*
X64035812Y-81919835D01*
X64061824Y-81900543D01*
X64089601Y-81883894D01*
X64118876Y-81870048D01*
X64149368Y-81859138D01*
X64180782Y-81851269D01*
X64212816Y-81846517D01*
X64245162Y-81844928D01*
X65735162Y-81844928D01*
X65767508Y-81846517D01*
X65767508Y-81846517D01*
G37*
D16*
X64990162Y-82669928D03*
G04 #@! TD*
D10*
G04 #@! TO.C,C2*
G36*
X70885346Y-75888589D02*
X70917380Y-75893341D01*
X70948794Y-75901210D01*
X70979286Y-75912120D01*
X71008561Y-75925966D01*
X71036338Y-75942615D01*
X71062350Y-75961907D01*
X71086345Y-75983655D01*
X71108093Y-76007650D01*
X71127385Y-76033662D01*
X71144034Y-76061439D01*
X71157880Y-76090714D01*
X71168790Y-76121206D01*
X71176659Y-76152620D01*
X71181411Y-76184654D01*
X71183000Y-76217000D01*
X71183000Y-77707000D01*
X71181411Y-77739346D01*
X71176659Y-77771380D01*
X71168790Y-77802794D01*
X71157880Y-77833286D01*
X71144034Y-77862561D01*
X71127385Y-77890338D01*
X71108093Y-77916350D01*
X71086345Y-77940345D01*
X71062350Y-77962093D01*
X71036338Y-77981385D01*
X71008561Y-77998034D01*
X70979286Y-78011880D01*
X70948794Y-78022790D01*
X70917380Y-78030659D01*
X70885346Y-78035411D01*
X70853000Y-78037000D01*
X69863000Y-78037000D01*
X69830654Y-78035411D01*
X69798620Y-78030659D01*
X69767206Y-78022790D01*
X69736714Y-78011880D01*
X69707439Y-77998034D01*
X69679662Y-77981385D01*
X69653650Y-77962093D01*
X69629655Y-77940345D01*
X69607907Y-77916350D01*
X69588615Y-77890338D01*
X69571966Y-77862561D01*
X69558120Y-77833286D01*
X69547210Y-77802794D01*
X69539341Y-77771380D01*
X69534589Y-77739346D01*
X69533000Y-77707000D01*
X69533000Y-76217000D01*
X69534589Y-76184654D01*
X69539341Y-76152620D01*
X69547210Y-76121206D01*
X69558120Y-76090714D01*
X69571966Y-76061439D01*
X69588615Y-76033662D01*
X69607907Y-76007650D01*
X69629655Y-75983655D01*
X69653650Y-75961907D01*
X69679662Y-75942615D01*
X69707439Y-75925966D01*
X69736714Y-75912120D01*
X69767206Y-75901210D01*
X69798620Y-75893341D01*
X69830654Y-75888589D01*
X69863000Y-75887000D01*
X70853000Y-75887000D01*
X70885346Y-75888589D01*
X70885346Y-75888589D01*
G37*
D16*
X70358000Y-76962000D03*
D10*
G36*
X68085346Y-75888589D02*
X68117380Y-75893341D01*
X68148794Y-75901210D01*
X68179286Y-75912120D01*
X68208561Y-75925966D01*
X68236338Y-75942615D01*
X68262350Y-75961907D01*
X68286345Y-75983655D01*
X68308093Y-76007650D01*
X68327385Y-76033662D01*
X68344034Y-76061439D01*
X68357880Y-76090714D01*
X68368790Y-76121206D01*
X68376659Y-76152620D01*
X68381411Y-76184654D01*
X68383000Y-76217000D01*
X68383000Y-77707000D01*
X68381411Y-77739346D01*
X68376659Y-77771380D01*
X68368790Y-77802794D01*
X68357880Y-77833286D01*
X68344034Y-77862561D01*
X68327385Y-77890338D01*
X68308093Y-77916350D01*
X68286345Y-77940345D01*
X68262350Y-77962093D01*
X68236338Y-77981385D01*
X68208561Y-77998034D01*
X68179286Y-78011880D01*
X68148794Y-78022790D01*
X68117380Y-78030659D01*
X68085346Y-78035411D01*
X68053000Y-78037000D01*
X67063000Y-78037000D01*
X67030654Y-78035411D01*
X66998620Y-78030659D01*
X66967206Y-78022790D01*
X66936714Y-78011880D01*
X66907439Y-77998034D01*
X66879662Y-77981385D01*
X66853650Y-77962093D01*
X66829655Y-77940345D01*
X66807907Y-77916350D01*
X66788615Y-77890338D01*
X66771966Y-77862561D01*
X66758120Y-77833286D01*
X66747210Y-77802794D01*
X66739341Y-77771380D01*
X66734589Y-77739346D01*
X66733000Y-77707000D01*
X66733000Y-76217000D01*
X66734589Y-76184654D01*
X66739341Y-76152620D01*
X66747210Y-76121206D01*
X66758120Y-76090714D01*
X66771966Y-76061439D01*
X66788615Y-76033662D01*
X66807907Y-76007650D01*
X66829655Y-75983655D01*
X66853650Y-75961907D01*
X66879662Y-75942615D01*
X66907439Y-75925966D01*
X66936714Y-75912120D01*
X66967206Y-75901210D01*
X66998620Y-75893341D01*
X67030654Y-75888589D01*
X67063000Y-75887000D01*
X68053000Y-75887000D01*
X68085346Y-75888589D01*
X68085346Y-75888589D01*
G37*
D16*
X67558000Y-76962000D03*
G04 #@! TD*
D17*
G04 #@! TO.C,J1*
X85056162Y-71057928D03*
X85056162Y-73827928D03*
X85056162Y-76597928D03*
X85056162Y-79367928D03*
X85056162Y-82137928D03*
G04 #@! TD*
D18*
G04 #@! TO.C,J3*
X80266162Y-72747928D03*
D19*
X80266162Y-75287928D03*
X80266162Y-77827928D03*
X80266162Y-80367928D03*
G04 #@! TD*
D20*
G04 #@! TO.C,C3*
X69766162Y-82409928D03*
D21*
X69766162Y-79909928D03*
G04 #@! TD*
D18*
G04 #@! TO.C,J2*
X54864000Y-71882000D03*
D19*
X57404000Y-71882000D03*
G04 #@! TD*
D22*
G04 #@! TO.C,D2*
X62450162Y-70599928D03*
X62450162Y-73899928D03*
G04 #@! TD*
D23*
G04 #@! TO.C,F1*
X64990162Y-70687928D03*
X64990162Y-72287928D03*
G04 #@! TD*
M02*
