G04 #@! TF.GenerationSoftware,KiCad,Pcbnew,(5.0.0)*
G04 #@! TF.CreationDate,2018-12-07T10:27:40+01:00*
G04 #@! TF.ProjectId,SoNavi,536F4E6176692E6B696361645F706362,rev?*
G04 #@! TF.SameCoordinates,Original*
G04 #@! TF.FileFunction,Copper,L2,Bot,Signal*
G04 #@! TF.FilePolarity,Positive*
%FSLAX46Y46*%
G04 Gerber Fmt 4.6, Leading zero omitted, Abs format (unit mm)*
G04 Created by KiCad (PCBNEW (5.0.0)) date 12/07/18 10:27:40*
%MOMM*%
%LPD*%
G01*
G04 APERTURE LIST*
G04 #@! TA.AperFunction,SMDPad,CuDef*
%ADD10R,3.480000X1.846667*%
G04 #@! TD*
G04 #@! TA.AperFunction,ComponentPad*
%ADD11R,1.725000X1.725000*%
G04 #@! TD*
G04 #@! TA.AperFunction,ComponentPad*
%ADD12C,1.725000*%
G04 #@! TD*
G04 #@! TA.AperFunction,ComponentPad*
%ADD13R,1.600000X1.600000*%
G04 #@! TD*
G04 #@! TA.AperFunction,ComponentPad*
%ADD14C,1.600000*%
G04 #@! TD*
G04 #@! TA.AperFunction,ViaPad*
%ADD15C,0.600000*%
G04 #@! TD*
G04 #@! TA.AperFunction,Conductor*
%ADD16C,0.250000*%
G04 #@! TD*
G04 #@! TA.AperFunction,Conductor*
%ADD17C,0.300000*%
G04 #@! TD*
G04 #@! TA.AperFunction,Conductor*
%ADD18C,0.254000*%
G04 #@! TD*
G04 APERTURE END LIST*
D10*
G04 #@! TO.P,J1,6*
G04 #@! TO.N,N/C*
X85056162Y-72442928D03*
G04 #@! TO.P,J1,7*
X85056162Y-75212928D03*
G04 #@! TO.P,J1,8*
X85056162Y-77982928D03*
G04 #@! TO.P,J1,9*
X85056162Y-80752928D03*
G04 #@! TD*
D11*
G04 #@! TO.P,J3,1*
G04 #@! TO.N,+5V*
X80266162Y-72747928D03*
D12*
G04 #@! TO.P,J3,2*
G04 #@! TO.N,GND*
X80266162Y-75287928D03*
G04 #@! TO.P,J3,3*
G04 #@! TO.N,/TX*
X80266162Y-77827928D03*
G04 #@! TO.P,J3,4*
G04 #@! TO.N,/RX*
X80266162Y-80367928D03*
G04 #@! TD*
D13*
G04 #@! TO.P,C3,1*
G04 #@! TO.N,GND*
X69766162Y-82409928D03*
D14*
G04 #@! TO.P,C3,2*
G04 #@! TO.N,+5V*
X69766162Y-79909928D03*
G04 #@! TD*
D11*
G04 #@! TO.P,J2,1*
G04 #@! TO.N,GND*
X54864000Y-71882000D03*
D12*
G04 #@! TO.P,J2,2*
G04 #@! TO.N,+12V*
X57404000Y-71882000D03*
G04 #@! TD*
D15*
G04 #@! TO.N,Net-(C1-Pad2)*
X61976000Y-82296000D03*
X65024000Y-74422000D03*
G04 #@! TO.N,+5V*
X61966162Y-77837928D03*
X70358000Y-75438000D03*
G04 #@! TO.N,GND*
X58166000Y-82550000D03*
X56642000Y-82550000D03*
X55118000Y-82550000D03*
X53848000Y-82550000D03*
X58166000Y-81280000D03*
X58166000Y-79756000D03*
X58166000Y-78486000D03*
X56642000Y-81280000D03*
X56642000Y-79756000D03*
X56642000Y-78486000D03*
X55118000Y-78486000D03*
X55118000Y-79756000D03*
X55118000Y-81280000D03*
X53848000Y-81280000D03*
X53848000Y-79756000D03*
X53848000Y-78486000D03*
X72644000Y-74168000D03*
X71374000Y-69596000D03*
X76962000Y-74168000D03*
G04 #@! TO.N,/RXD*
X73914000Y-78740000D03*
X73914000Y-78740000D03*
X77978000Y-73660000D03*
G04 #@! TO.N,/TXD*
X82042000Y-75946000D03*
X78232000Y-70612000D03*
G04 #@! TD*
D16*
G04 #@! TO.N,Net-(C1-Pad2)*
X64383088Y-74422000D02*
X62097088Y-76708000D01*
X62097088Y-76708000D02*
X60198000Y-76708000D01*
X60198000Y-76708000D02*
X59944000Y-76962000D01*
X65024000Y-74422000D02*
X64383088Y-74422000D01*
X59944000Y-76962000D02*
X59944000Y-82296000D01*
X59944000Y-82296000D02*
X61976000Y-82296000D01*
D17*
G04 #@! TO.N,+5V*
X69766162Y-79909928D02*
X64038162Y-79909928D01*
X64038162Y-79909928D02*
X61966162Y-77837928D01*
X69766162Y-79909928D02*
X70566161Y-79109929D01*
X79103662Y-72747928D02*
X78491734Y-72136000D01*
X80266162Y-72747928D02*
X79103662Y-72747928D01*
X73639998Y-72136000D02*
X71120000Y-74655998D01*
X78491734Y-72136000D02*
X73639998Y-72136000D01*
X71120000Y-74676000D02*
X70358000Y-75438000D01*
X71120000Y-74655998D02*
X71120000Y-74676000D01*
D16*
G04 #@! TO.N,/RXD*
X77978000Y-73660000D02*
X77978000Y-75946000D01*
X75184000Y-78740000D02*
X73914000Y-78740000D01*
X77978000Y-75946000D02*
X75184000Y-78740000D01*
G04 #@! TO.N,/TXD*
X82042000Y-70866000D02*
X82042000Y-75946000D01*
X81788000Y-70612000D02*
X82042000Y-70866000D01*
X78232000Y-70612000D02*
X81788000Y-70612000D01*
G04 #@! TD*
D18*
G04 #@! TO.N,GND*
G36*
X86961162Y-70904975D02*
X86796162Y-70872155D01*
X83316162Y-70872155D01*
X83068397Y-70921438D01*
X82858353Y-71061786D01*
X82802000Y-71146124D01*
X82802000Y-70940846D01*
X82816888Y-70865999D01*
X82802000Y-70791152D01*
X82802000Y-70791148D01*
X82757904Y-70569463D01*
X82589929Y-70318071D01*
X82526470Y-70275669D01*
X82378331Y-70127530D01*
X82335929Y-70064071D01*
X82084537Y-69896096D01*
X81862852Y-69852000D01*
X81862847Y-69852000D01*
X81788000Y-69837112D01*
X81713153Y-69852000D01*
X78794290Y-69852000D01*
X78761635Y-69819345D01*
X78417983Y-69677000D01*
X78046017Y-69677000D01*
X77702365Y-69819345D01*
X77439345Y-70082365D01*
X77297000Y-70426017D01*
X77297000Y-70797983D01*
X77439345Y-71141635D01*
X77648710Y-71351000D01*
X73717308Y-71351000D01*
X73639997Y-71335622D01*
X73562686Y-71351000D01*
X73562682Y-71351000D01*
X73333706Y-71396546D01*
X73307691Y-71413929D01*
X73139589Y-71526251D01*
X73139587Y-71526253D01*
X73074045Y-71570047D01*
X73030251Y-71635589D01*
X70619592Y-74046249D01*
X70554047Y-74090045D01*
X70469974Y-74215869D01*
X70182843Y-74503000D01*
X70172017Y-74503000D01*
X69828365Y-74645345D01*
X69565345Y-74908365D01*
X69423000Y-75252017D01*
X69423000Y-75623983D01*
X69565345Y-75967635D01*
X69828365Y-76230655D01*
X70172017Y-76373000D01*
X70543983Y-76373000D01*
X70887635Y-76230655D01*
X71150655Y-75967635D01*
X71293000Y-75623983D01*
X71293000Y-75613157D01*
X71620408Y-75285749D01*
X71685953Y-75241953D01*
X71745159Y-75153345D01*
X71770027Y-75116128D01*
X73965156Y-72921000D01*
X77394710Y-72921000D01*
X77185345Y-73130365D01*
X77043000Y-73474017D01*
X77043000Y-73845983D01*
X77185345Y-74189635D01*
X77218000Y-74222290D01*
X77218001Y-75631197D01*
X74869199Y-77980000D01*
X74476290Y-77980000D01*
X74443635Y-77947345D01*
X74099983Y-77805000D01*
X73728017Y-77805000D01*
X73384365Y-77947345D01*
X73121345Y-78210365D01*
X72979000Y-78554017D01*
X72979000Y-78925983D01*
X73121345Y-79269635D01*
X73384365Y-79532655D01*
X73728017Y-79675000D01*
X74099983Y-79675000D01*
X74443635Y-79532655D01*
X74476290Y-79500000D01*
X75109153Y-79500000D01*
X75184000Y-79514888D01*
X75258847Y-79500000D01*
X75258852Y-79500000D01*
X75480537Y-79455904D01*
X75731929Y-79287929D01*
X75774331Y-79224470D01*
X78462473Y-76536329D01*
X78525929Y-76493929D01*
X78568924Y-76429582D01*
X78693904Y-76242538D01*
X78706850Y-76177454D01*
X78738000Y-76020852D01*
X78738000Y-76020848D01*
X78752888Y-75946000D01*
X78738000Y-75871152D01*
X78738000Y-74222290D01*
X78770655Y-74189635D01*
X78868742Y-73952833D01*
X78945853Y-74068237D01*
X79155897Y-74208585D01*
X79184133Y-74214201D01*
X79098480Y-74299854D01*
X79213150Y-74414524D01*
X78960556Y-74496330D01*
X78757007Y-75056221D01*
X78783214Y-75651387D01*
X78960556Y-76079526D01*
X79213152Y-76161333D01*
X80086557Y-75287928D01*
X80072415Y-75273786D01*
X80252020Y-75094181D01*
X80266162Y-75108323D01*
X80280305Y-75094181D01*
X80459910Y-75273786D01*
X80445767Y-75287928D01*
X80459910Y-75302071D01*
X80280305Y-75481676D01*
X80266162Y-75467533D01*
X79392757Y-76340938D01*
X79457831Y-76541867D01*
X79417896Y-76558409D01*
X78996643Y-76979662D01*
X78768662Y-77530057D01*
X78768662Y-78125799D01*
X78996643Y-78676194D01*
X79417896Y-79097447D01*
X79419057Y-79097928D01*
X79417896Y-79098409D01*
X78996643Y-79519662D01*
X78768662Y-80070057D01*
X78768662Y-80665799D01*
X78996643Y-81216194D01*
X79417896Y-81637447D01*
X79968291Y-81865428D01*
X80564033Y-81865428D01*
X81114428Y-81637447D01*
X81535681Y-81216194D01*
X81763662Y-80665799D01*
X81763662Y-80070057D01*
X81535681Y-79519662D01*
X81114428Y-79098409D01*
X81113267Y-79097928D01*
X81114428Y-79097447D01*
X81535681Y-78676194D01*
X81763662Y-78125799D01*
X81763662Y-77530057D01*
X81535681Y-76979662D01*
X81114428Y-76558409D01*
X81074493Y-76541867D01*
X81139566Y-76340940D01*
X81231727Y-76433101D01*
X81249345Y-76475635D01*
X81512365Y-76738655D01*
X81856017Y-76881000D01*
X82227983Y-76881000D01*
X82571635Y-76738655D01*
X82801422Y-76508868D01*
X82858353Y-76594070D01*
X82864127Y-76597928D01*
X82858353Y-76601786D01*
X82718005Y-76811830D01*
X82668722Y-77059595D01*
X82668722Y-78906261D01*
X82718005Y-79154026D01*
X82858353Y-79364070D01*
X82864127Y-79367928D01*
X82858353Y-79371786D01*
X82718005Y-79581830D01*
X82668722Y-79829595D01*
X82668722Y-81676261D01*
X82718005Y-81924026D01*
X82858353Y-82134070D01*
X83068397Y-82274418D01*
X83316162Y-82323701D01*
X86796162Y-82323701D01*
X86961162Y-82290881D01*
X86961162Y-83807845D01*
X75909690Y-83887928D01*
X52476162Y-83887928D01*
X52476162Y-82296000D01*
X59169111Y-82296000D01*
X59228096Y-82592537D01*
X59396071Y-82843929D01*
X59647463Y-83011904D01*
X59869148Y-83056000D01*
X59944000Y-83070889D01*
X60018852Y-83056000D01*
X61413710Y-83056000D01*
X61446365Y-83088655D01*
X61790017Y-83231000D01*
X62161983Y-83231000D01*
X62505635Y-83088655D01*
X62768655Y-82825635D01*
X62822484Y-82695678D01*
X68331162Y-82695678D01*
X68331162Y-83336237D01*
X68427835Y-83569626D01*
X68606463Y-83748255D01*
X68839852Y-83844928D01*
X69480412Y-83844928D01*
X69639162Y-83686178D01*
X69639162Y-82536928D01*
X69893162Y-82536928D01*
X69893162Y-83686178D01*
X70051912Y-83844928D01*
X70692472Y-83844928D01*
X70925861Y-83748255D01*
X71104489Y-83569626D01*
X71201162Y-83336237D01*
X71201162Y-82695678D01*
X71042412Y-82536928D01*
X69893162Y-82536928D01*
X69639162Y-82536928D01*
X68489912Y-82536928D01*
X68331162Y-82695678D01*
X62822484Y-82695678D01*
X62911000Y-82481983D01*
X62911000Y-82110017D01*
X62768655Y-81766365D01*
X62505635Y-81503345D01*
X62161983Y-81361000D01*
X61790017Y-81361000D01*
X61446365Y-81503345D01*
X61413710Y-81536000D01*
X60704000Y-81536000D01*
X60704000Y-77468000D01*
X61107354Y-77468000D01*
X61031162Y-77651945D01*
X61031162Y-78023911D01*
X61173507Y-78367563D01*
X61436527Y-78630583D01*
X61780179Y-78772928D01*
X61791005Y-78772928D01*
X63428413Y-80410336D01*
X63472209Y-80475881D01*
X63731870Y-80649382D01*
X63960846Y-80694928D01*
X63960850Y-80694928D01*
X64038162Y-80710306D01*
X64115474Y-80694928D01*
X68538087Y-80694928D01*
X68549628Y-80722790D01*
X68812921Y-80986083D01*
X68606463Y-81071601D01*
X68427835Y-81250230D01*
X68331162Y-81483619D01*
X68331162Y-82124178D01*
X68489912Y-82282928D01*
X69639162Y-82282928D01*
X69639162Y-82262928D01*
X69893162Y-82262928D01*
X69893162Y-82282928D01*
X71042412Y-82282928D01*
X71201162Y-82124178D01*
X71201162Y-81483619D01*
X71104489Y-81250230D01*
X70925861Y-81071601D01*
X70719403Y-80986083D01*
X70982696Y-80722790D01*
X71201162Y-80195367D01*
X71201162Y-79624489D01*
X71187880Y-79592424D01*
X71305614Y-79416222D01*
X71366539Y-79109930D01*
X71305614Y-78803638D01*
X71132114Y-78543976D01*
X70872452Y-78370476D01*
X70566160Y-78309551D01*
X70259868Y-78370476D01*
X70083666Y-78488210D01*
X70051601Y-78474928D01*
X69480723Y-78474928D01*
X68953300Y-78693394D01*
X68549628Y-79097066D01*
X68538087Y-79124928D01*
X64363319Y-79124928D01*
X62901162Y-77662771D01*
X62901162Y-77651945D01*
X62758817Y-77308293D01*
X62669625Y-77219101D01*
X62687419Y-77192470D01*
X64615188Y-75264702D01*
X64838017Y-75357000D01*
X65209983Y-75357000D01*
X65553635Y-75214655D01*
X65816655Y-74951635D01*
X65959000Y-74607983D01*
X65959000Y-74236017D01*
X65816655Y-73892365D01*
X65553635Y-73629345D01*
X65209983Y-73487000D01*
X64838017Y-73487000D01*
X64494365Y-73629345D01*
X64461710Y-73662000D01*
X64457934Y-73662000D01*
X64383087Y-73647112D01*
X64308240Y-73662000D01*
X64308236Y-73662000D01*
X64086551Y-73706096D01*
X63835159Y-73874071D01*
X63792759Y-73937527D01*
X61782287Y-75948000D01*
X60272846Y-75948000D01*
X60197999Y-75933112D01*
X60123152Y-75948000D01*
X60123148Y-75948000D01*
X59901463Y-75992096D01*
X59650071Y-76160071D01*
X59607669Y-76223530D01*
X59459530Y-76371669D01*
X59396071Y-76414071D01*
X59228096Y-76665464D01*
X59184000Y-76887149D01*
X59184000Y-76887153D01*
X59169112Y-76962000D01*
X59184000Y-77036847D01*
X59184001Y-82221143D01*
X59169111Y-82296000D01*
X52476162Y-82296000D01*
X52476162Y-72167750D01*
X53366500Y-72167750D01*
X53366500Y-72870809D01*
X53463173Y-73104198D01*
X53641801Y-73282827D01*
X53875190Y-73379500D01*
X54578250Y-73379500D01*
X54737000Y-73220750D01*
X54737000Y-72009000D01*
X53525250Y-72009000D01*
X53366500Y-72167750D01*
X52476162Y-72167750D01*
X52476162Y-70893191D01*
X53366500Y-70893191D01*
X53366500Y-71596250D01*
X53525250Y-71755000D01*
X54737000Y-71755000D01*
X54737000Y-70543250D01*
X54991000Y-70543250D01*
X54991000Y-71755000D01*
X55011000Y-71755000D01*
X55011000Y-72009000D01*
X54991000Y-72009000D01*
X54991000Y-73220750D01*
X55149750Y-73379500D01*
X55852810Y-73379500D01*
X56086199Y-73282827D01*
X56264827Y-73104198D01*
X56336172Y-72931957D01*
X56555734Y-73151519D01*
X57106129Y-73379500D01*
X57701871Y-73379500D01*
X58252266Y-73151519D01*
X58673519Y-72730266D01*
X58901500Y-72179871D01*
X58901500Y-71584129D01*
X58673519Y-71033734D01*
X58252266Y-70612481D01*
X57701871Y-70384500D01*
X57106129Y-70384500D01*
X56555734Y-70612481D01*
X56336172Y-70832043D01*
X56264827Y-70659802D01*
X56086199Y-70481173D01*
X55852810Y-70384500D01*
X55149750Y-70384500D01*
X54991000Y-70543250D01*
X54737000Y-70543250D01*
X54578250Y-70384500D01*
X53875190Y-70384500D01*
X53641801Y-70481173D01*
X53463173Y-70659802D01*
X53366500Y-70893191D01*
X52476162Y-70893191D01*
X52476162Y-69307928D01*
X86961162Y-69307928D01*
X86961162Y-70904975D01*
X86961162Y-70904975D01*
G37*
X86961162Y-70904975D02*
X86796162Y-70872155D01*
X83316162Y-70872155D01*
X83068397Y-70921438D01*
X82858353Y-71061786D01*
X82802000Y-71146124D01*
X82802000Y-70940846D01*
X82816888Y-70865999D01*
X82802000Y-70791152D01*
X82802000Y-70791148D01*
X82757904Y-70569463D01*
X82589929Y-70318071D01*
X82526470Y-70275669D01*
X82378331Y-70127530D01*
X82335929Y-70064071D01*
X82084537Y-69896096D01*
X81862852Y-69852000D01*
X81862847Y-69852000D01*
X81788000Y-69837112D01*
X81713153Y-69852000D01*
X78794290Y-69852000D01*
X78761635Y-69819345D01*
X78417983Y-69677000D01*
X78046017Y-69677000D01*
X77702365Y-69819345D01*
X77439345Y-70082365D01*
X77297000Y-70426017D01*
X77297000Y-70797983D01*
X77439345Y-71141635D01*
X77648710Y-71351000D01*
X73717308Y-71351000D01*
X73639997Y-71335622D01*
X73562686Y-71351000D01*
X73562682Y-71351000D01*
X73333706Y-71396546D01*
X73307691Y-71413929D01*
X73139589Y-71526251D01*
X73139587Y-71526253D01*
X73074045Y-71570047D01*
X73030251Y-71635589D01*
X70619592Y-74046249D01*
X70554047Y-74090045D01*
X70469974Y-74215869D01*
X70182843Y-74503000D01*
X70172017Y-74503000D01*
X69828365Y-74645345D01*
X69565345Y-74908365D01*
X69423000Y-75252017D01*
X69423000Y-75623983D01*
X69565345Y-75967635D01*
X69828365Y-76230655D01*
X70172017Y-76373000D01*
X70543983Y-76373000D01*
X70887635Y-76230655D01*
X71150655Y-75967635D01*
X71293000Y-75623983D01*
X71293000Y-75613157D01*
X71620408Y-75285749D01*
X71685953Y-75241953D01*
X71745159Y-75153345D01*
X71770027Y-75116128D01*
X73965156Y-72921000D01*
X77394710Y-72921000D01*
X77185345Y-73130365D01*
X77043000Y-73474017D01*
X77043000Y-73845983D01*
X77185345Y-74189635D01*
X77218000Y-74222290D01*
X77218001Y-75631197D01*
X74869199Y-77980000D01*
X74476290Y-77980000D01*
X74443635Y-77947345D01*
X74099983Y-77805000D01*
X73728017Y-77805000D01*
X73384365Y-77947345D01*
X73121345Y-78210365D01*
X72979000Y-78554017D01*
X72979000Y-78925983D01*
X73121345Y-79269635D01*
X73384365Y-79532655D01*
X73728017Y-79675000D01*
X74099983Y-79675000D01*
X74443635Y-79532655D01*
X74476290Y-79500000D01*
X75109153Y-79500000D01*
X75184000Y-79514888D01*
X75258847Y-79500000D01*
X75258852Y-79500000D01*
X75480537Y-79455904D01*
X75731929Y-79287929D01*
X75774331Y-79224470D01*
X78462473Y-76536329D01*
X78525929Y-76493929D01*
X78568924Y-76429582D01*
X78693904Y-76242538D01*
X78706850Y-76177454D01*
X78738000Y-76020852D01*
X78738000Y-76020848D01*
X78752888Y-75946000D01*
X78738000Y-75871152D01*
X78738000Y-74222290D01*
X78770655Y-74189635D01*
X78868742Y-73952833D01*
X78945853Y-74068237D01*
X79155897Y-74208585D01*
X79184133Y-74214201D01*
X79098480Y-74299854D01*
X79213150Y-74414524D01*
X78960556Y-74496330D01*
X78757007Y-75056221D01*
X78783214Y-75651387D01*
X78960556Y-76079526D01*
X79213152Y-76161333D01*
X80086557Y-75287928D01*
X80072415Y-75273786D01*
X80252020Y-75094181D01*
X80266162Y-75108323D01*
X80280305Y-75094181D01*
X80459910Y-75273786D01*
X80445767Y-75287928D01*
X80459910Y-75302071D01*
X80280305Y-75481676D01*
X80266162Y-75467533D01*
X79392757Y-76340938D01*
X79457831Y-76541867D01*
X79417896Y-76558409D01*
X78996643Y-76979662D01*
X78768662Y-77530057D01*
X78768662Y-78125799D01*
X78996643Y-78676194D01*
X79417896Y-79097447D01*
X79419057Y-79097928D01*
X79417896Y-79098409D01*
X78996643Y-79519662D01*
X78768662Y-80070057D01*
X78768662Y-80665799D01*
X78996643Y-81216194D01*
X79417896Y-81637447D01*
X79968291Y-81865428D01*
X80564033Y-81865428D01*
X81114428Y-81637447D01*
X81535681Y-81216194D01*
X81763662Y-80665799D01*
X81763662Y-80070057D01*
X81535681Y-79519662D01*
X81114428Y-79098409D01*
X81113267Y-79097928D01*
X81114428Y-79097447D01*
X81535681Y-78676194D01*
X81763662Y-78125799D01*
X81763662Y-77530057D01*
X81535681Y-76979662D01*
X81114428Y-76558409D01*
X81074493Y-76541867D01*
X81139566Y-76340940D01*
X81231727Y-76433101D01*
X81249345Y-76475635D01*
X81512365Y-76738655D01*
X81856017Y-76881000D01*
X82227983Y-76881000D01*
X82571635Y-76738655D01*
X82801422Y-76508868D01*
X82858353Y-76594070D01*
X82864127Y-76597928D01*
X82858353Y-76601786D01*
X82718005Y-76811830D01*
X82668722Y-77059595D01*
X82668722Y-78906261D01*
X82718005Y-79154026D01*
X82858353Y-79364070D01*
X82864127Y-79367928D01*
X82858353Y-79371786D01*
X82718005Y-79581830D01*
X82668722Y-79829595D01*
X82668722Y-81676261D01*
X82718005Y-81924026D01*
X82858353Y-82134070D01*
X83068397Y-82274418D01*
X83316162Y-82323701D01*
X86796162Y-82323701D01*
X86961162Y-82290881D01*
X86961162Y-83807845D01*
X75909690Y-83887928D01*
X52476162Y-83887928D01*
X52476162Y-82296000D01*
X59169111Y-82296000D01*
X59228096Y-82592537D01*
X59396071Y-82843929D01*
X59647463Y-83011904D01*
X59869148Y-83056000D01*
X59944000Y-83070889D01*
X60018852Y-83056000D01*
X61413710Y-83056000D01*
X61446365Y-83088655D01*
X61790017Y-83231000D01*
X62161983Y-83231000D01*
X62505635Y-83088655D01*
X62768655Y-82825635D01*
X62822484Y-82695678D01*
X68331162Y-82695678D01*
X68331162Y-83336237D01*
X68427835Y-83569626D01*
X68606463Y-83748255D01*
X68839852Y-83844928D01*
X69480412Y-83844928D01*
X69639162Y-83686178D01*
X69639162Y-82536928D01*
X69893162Y-82536928D01*
X69893162Y-83686178D01*
X70051912Y-83844928D01*
X70692472Y-83844928D01*
X70925861Y-83748255D01*
X71104489Y-83569626D01*
X71201162Y-83336237D01*
X71201162Y-82695678D01*
X71042412Y-82536928D01*
X69893162Y-82536928D01*
X69639162Y-82536928D01*
X68489912Y-82536928D01*
X68331162Y-82695678D01*
X62822484Y-82695678D01*
X62911000Y-82481983D01*
X62911000Y-82110017D01*
X62768655Y-81766365D01*
X62505635Y-81503345D01*
X62161983Y-81361000D01*
X61790017Y-81361000D01*
X61446365Y-81503345D01*
X61413710Y-81536000D01*
X60704000Y-81536000D01*
X60704000Y-77468000D01*
X61107354Y-77468000D01*
X61031162Y-77651945D01*
X61031162Y-78023911D01*
X61173507Y-78367563D01*
X61436527Y-78630583D01*
X61780179Y-78772928D01*
X61791005Y-78772928D01*
X63428413Y-80410336D01*
X63472209Y-80475881D01*
X63731870Y-80649382D01*
X63960846Y-80694928D01*
X63960850Y-80694928D01*
X64038162Y-80710306D01*
X64115474Y-80694928D01*
X68538087Y-80694928D01*
X68549628Y-80722790D01*
X68812921Y-80986083D01*
X68606463Y-81071601D01*
X68427835Y-81250230D01*
X68331162Y-81483619D01*
X68331162Y-82124178D01*
X68489912Y-82282928D01*
X69639162Y-82282928D01*
X69639162Y-82262928D01*
X69893162Y-82262928D01*
X69893162Y-82282928D01*
X71042412Y-82282928D01*
X71201162Y-82124178D01*
X71201162Y-81483619D01*
X71104489Y-81250230D01*
X70925861Y-81071601D01*
X70719403Y-80986083D01*
X70982696Y-80722790D01*
X71201162Y-80195367D01*
X71201162Y-79624489D01*
X71187880Y-79592424D01*
X71305614Y-79416222D01*
X71366539Y-79109930D01*
X71305614Y-78803638D01*
X71132114Y-78543976D01*
X70872452Y-78370476D01*
X70566160Y-78309551D01*
X70259868Y-78370476D01*
X70083666Y-78488210D01*
X70051601Y-78474928D01*
X69480723Y-78474928D01*
X68953300Y-78693394D01*
X68549628Y-79097066D01*
X68538087Y-79124928D01*
X64363319Y-79124928D01*
X62901162Y-77662771D01*
X62901162Y-77651945D01*
X62758817Y-77308293D01*
X62669625Y-77219101D01*
X62687419Y-77192470D01*
X64615188Y-75264702D01*
X64838017Y-75357000D01*
X65209983Y-75357000D01*
X65553635Y-75214655D01*
X65816655Y-74951635D01*
X65959000Y-74607983D01*
X65959000Y-74236017D01*
X65816655Y-73892365D01*
X65553635Y-73629345D01*
X65209983Y-73487000D01*
X64838017Y-73487000D01*
X64494365Y-73629345D01*
X64461710Y-73662000D01*
X64457934Y-73662000D01*
X64383087Y-73647112D01*
X64308240Y-73662000D01*
X64308236Y-73662000D01*
X64086551Y-73706096D01*
X63835159Y-73874071D01*
X63792759Y-73937527D01*
X61782287Y-75948000D01*
X60272846Y-75948000D01*
X60197999Y-75933112D01*
X60123152Y-75948000D01*
X60123148Y-75948000D01*
X59901463Y-75992096D01*
X59650071Y-76160071D01*
X59607669Y-76223530D01*
X59459530Y-76371669D01*
X59396071Y-76414071D01*
X59228096Y-76665464D01*
X59184000Y-76887149D01*
X59184000Y-76887153D01*
X59169112Y-76962000D01*
X59184000Y-77036847D01*
X59184001Y-82221143D01*
X59169111Y-82296000D01*
X52476162Y-82296000D01*
X52476162Y-72167750D01*
X53366500Y-72167750D01*
X53366500Y-72870809D01*
X53463173Y-73104198D01*
X53641801Y-73282827D01*
X53875190Y-73379500D01*
X54578250Y-73379500D01*
X54737000Y-73220750D01*
X54737000Y-72009000D01*
X53525250Y-72009000D01*
X53366500Y-72167750D01*
X52476162Y-72167750D01*
X52476162Y-70893191D01*
X53366500Y-70893191D01*
X53366500Y-71596250D01*
X53525250Y-71755000D01*
X54737000Y-71755000D01*
X54737000Y-70543250D01*
X54991000Y-70543250D01*
X54991000Y-71755000D01*
X55011000Y-71755000D01*
X55011000Y-72009000D01*
X54991000Y-72009000D01*
X54991000Y-73220750D01*
X55149750Y-73379500D01*
X55852810Y-73379500D01*
X56086199Y-73282827D01*
X56264827Y-73104198D01*
X56336172Y-72931957D01*
X56555734Y-73151519D01*
X57106129Y-73379500D01*
X57701871Y-73379500D01*
X58252266Y-73151519D01*
X58673519Y-72730266D01*
X58901500Y-72179871D01*
X58901500Y-71584129D01*
X58673519Y-71033734D01*
X58252266Y-70612481D01*
X57701871Y-70384500D01*
X57106129Y-70384500D01*
X56555734Y-70612481D01*
X56336172Y-70832043D01*
X56264827Y-70659802D01*
X56086199Y-70481173D01*
X55852810Y-70384500D01*
X55149750Y-70384500D01*
X54991000Y-70543250D01*
X54737000Y-70543250D01*
X54578250Y-70384500D01*
X53875190Y-70384500D01*
X53641801Y-70481173D01*
X53463173Y-70659802D01*
X53366500Y-70893191D01*
X52476162Y-70893191D01*
X52476162Y-69307928D01*
X86961162Y-69307928D01*
X86961162Y-70904975D01*
G04 #@! TD*
M02*
