G04 #@! TF.GenerationSoftware,KiCad,Pcbnew,(5.0.0)*
G04 #@! TF.CreationDate,2018-12-07T10:27:40+01:00*
G04 #@! TF.ProjectId,SoNavi,536F4E6176692E6B696361645F706362,rev?*
G04 #@! TF.SameCoordinates,Original*
G04 #@! TF.FileFunction,Other,Comment*
%FSLAX46Y46*%
G04 Gerber Fmt 4.6, Leading zero omitted, Abs format (unit mm)*
G04 Created by KiCad (PCBNEW (5.0.0)) date 12/07/18 10:27:40*
%MOMM*%
%LPD*%
G01*
G04 APERTURE LIST*
%ADD10C,0.300000*%
G04 APERTURE END LIST*
D10*
X65487590Y-29226499D02*
X64773304Y-29226499D01*
X64701876Y-29940785D01*
X64773304Y-29869356D01*
X64916162Y-29797928D01*
X65273304Y-29797928D01*
X65416162Y-29869356D01*
X65487590Y-29940785D01*
X65559019Y-30083642D01*
X65559019Y-30440785D01*
X65487590Y-30583642D01*
X65416162Y-30655070D01*
X65273304Y-30726499D01*
X64916162Y-30726499D01*
X64773304Y-30655070D01*
X64701876Y-30583642D01*
X66130447Y-29369356D02*
X66201876Y-29297928D01*
X66344733Y-29226499D01*
X66701876Y-29226499D01*
X66844733Y-29297928D01*
X66916162Y-29369356D01*
X66987590Y-29512213D01*
X66987590Y-29655070D01*
X66916162Y-29869356D01*
X66059019Y-30726499D01*
X66987590Y-30726499D01*
X67701876Y-30655070D02*
X67701876Y-30726499D01*
X67630447Y-30869356D01*
X67559019Y-30940785D01*
X68987590Y-29226499D02*
X68701876Y-29226499D01*
X68559019Y-29297928D01*
X68487590Y-29369356D01*
X68344733Y-29583642D01*
X68273304Y-29869356D01*
X68273304Y-30440785D01*
X68344733Y-30583642D01*
X68416162Y-30655070D01*
X68559019Y-30726499D01*
X68844733Y-30726499D01*
X68987590Y-30655070D01*
X69059019Y-30583642D01*
X69130447Y-30440785D01*
X69130447Y-30083642D01*
X69059019Y-29940785D01*
X68987590Y-29869356D01*
X68844733Y-29797928D01*
X68559019Y-29797928D01*
X68416162Y-29869356D01*
X68344733Y-29940785D01*
X68273304Y-30083642D01*
X70059019Y-29226499D02*
X70201876Y-29226499D01*
X70344733Y-29297928D01*
X70416162Y-29369356D01*
X70487590Y-29512213D01*
X70559019Y-29797928D01*
X70559019Y-30155070D01*
X70487590Y-30440785D01*
X70416162Y-30583642D01*
X70344733Y-30655070D01*
X70201876Y-30726499D01*
X70059019Y-30726499D01*
X69916162Y-30655070D01*
X69844733Y-30583642D01*
X69773304Y-30440785D01*
X69701876Y-30155070D01*
X69701876Y-29797928D01*
X69773304Y-29512213D01*
X69844733Y-29369356D01*
X69916162Y-29297928D01*
X70059019Y-29226499D01*
X71487590Y-29226499D02*
X71630447Y-29226499D01*
X71773304Y-29297928D01*
X71844733Y-29369356D01*
X71916162Y-29512213D01*
X71987590Y-29797928D01*
X71987590Y-30155070D01*
X71916162Y-30440785D01*
X71844733Y-30583642D01*
X71773304Y-30655070D01*
X71630447Y-30726499D01*
X71487590Y-30726499D01*
X71344733Y-30655070D01*
X71273304Y-30583642D01*
X71201876Y-30440785D01*
X71130447Y-30155070D01*
X71130447Y-29797928D01*
X71201876Y-29512213D01*
X71273304Y-29369356D01*
X71344733Y-29297928D01*
X71487590Y-29226499D01*
X73773304Y-30726499D02*
X73773304Y-29726499D01*
X73773304Y-29869356D02*
X73844733Y-29797928D01*
X73987590Y-29726499D01*
X74201876Y-29726499D01*
X74344733Y-29797928D01*
X74416162Y-29940785D01*
X74416162Y-30726499D01*
X74416162Y-29940785D02*
X74487590Y-29797928D01*
X74630447Y-29726499D01*
X74844733Y-29726499D01*
X74987590Y-29797928D01*
X75059019Y-29940785D01*
X75059019Y-30726499D01*
X75773304Y-30726499D02*
X75773304Y-29726499D01*
X75773304Y-29869356D02*
X75844733Y-29797928D01*
X75987590Y-29726499D01*
X76201876Y-29726499D01*
X76344733Y-29797928D01*
X76416162Y-29940785D01*
X76416162Y-30726499D01*
X76416162Y-29940785D02*
X76487590Y-29797928D01*
X76630447Y-29726499D01*
X76844733Y-29726499D01*
X76987590Y-29797928D01*
X77059019Y-29940785D01*
X77059019Y-30726499D01*
X44616162Y-32147928D02*
X97216162Y-32147928D01*
X44616162Y-44847928D02*
X44616162Y-31561507D01*
X97216162Y-44847928D02*
X97216162Y-31561507D01*
X97216162Y-32147928D02*
X96089658Y-32734349D01*
X97216162Y-32147928D02*
X96089658Y-31561507D01*
X44616162Y-32147928D02*
X45742666Y-32734349D01*
X44616162Y-32147928D02*
X45742666Y-31561507D01*
X56098468Y-93344330D02*
X57027036Y-93341751D01*
X56528625Y-93914566D01*
X56742910Y-93913971D01*
X56885965Y-93985002D01*
X56957591Y-94056232D01*
X57029417Y-94198891D01*
X57030409Y-94556032D01*
X56959377Y-94699087D01*
X56888147Y-94770714D01*
X56745489Y-94842539D01*
X56316919Y-94843729D01*
X56173864Y-94772698D01*
X56102238Y-94701468D01*
X58312745Y-93338180D02*
X58027032Y-93338973D01*
X57884374Y-93410798D01*
X57813144Y-93482425D01*
X57670882Y-93697107D01*
X57600248Y-93983018D01*
X57601835Y-94554445D01*
X57673660Y-94697103D01*
X57745287Y-94768333D01*
X57888342Y-94839364D01*
X58174055Y-94838571D01*
X58316713Y-94766745D01*
X58387943Y-94695119D01*
X58458974Y-94552064D01*
X58457982Y-94194922D01*
X58386157Y-94052264D01*
X58314531Y-93981034D01*
X58171476Y-93910003D01*
X57885762Y-93910796D01*
X57743104Y-93982622D01*
X57671874Y-94054248D01*
X57600843Y-94197303D01*
X59173853Y-94764365D02*
X59174051Y-94835793D01*
X59103020Y-94978848D01*
X59031790Y-95050475D01*
X60098452Y-93333219D02*
X60241309Y-93332822D01*
X60384364Y-93403854D01*
X60455991Y-93475084D01*
X60527816Y-93617742D01*
X60600038Y-93903257D01*
X60601030Y-94260398D01*
X60530395Y-94546310D01*
X60459364Y-94689365D01*
X60388134Y-94760992D01*
X60245476Y-94832817D01*
X60102619Y-94833213D01*
X59959564Y-94762182D01*
X59887937Y-94690952D01*
X59816112Y-94548294D01*
X59743890Y-94262779D01*
X59742898Y-93905638D01*
X59813533Y-93619726D01*
X59884564Y-93476671D01*
X59955794Y-93405044D01*
X60098452Y-93333219D01*
X61527018Y-93329251D02*
X61669875Y-93328854D01*
X61812930Y-93399886D01*
X61884557Y-93471116D01*
X61956382Y-93613774D01*
X62028604Y-93899289D01*
X62029596Y-94256430D01*
X61958961Y-94542342D01*
X61887930Y-94685397D01*
X61816700Y-94757023D01*
X61674041Y-94828848D01*
X61531185Y-94829245D01*
X61388130Y-94758214D01*
X61316503Y-94686984D01*
X61244678Y-94544326D01*
X61172456Y-94258811D01*
X61171464Y-93901669D01*
X61242099Y-93615758D01*
X61313130Y-93472703D01*
X61384360Y-93401076D01*
X61527018Y-93329251D01*
X62955584Y-93325283D02*
X63098441Y-93324886D01*
X63241496Y-93395917D01*
X63313122Y-93467147D01*
X63384948Y-93609806D01*
X63457169Y-93895320D01*
X63458162Y-94252462D01*
X63387527Y-94538373D01*
X63316495Y-94681428D01*
X63245266Y-94753055D01*
X63102607Y-94824880D01*
X62959751Y-94825277D01*
X62816696Y-94754246D01*
X62745069Y-94683016D01*
X62673244Y-94540357D01*
X62601022Y-94254843D01*
X62600030Y-93897701D01*
X62670665Y-93611790D01*
X62741696Y-93468735D01*
X62812926Y-93397108D01*
X62955584Y-93325283D01*
X65245456Y-94818928D02*
X65242678Y-93818932D01*
X65243075Y-93961788D02*
X65314305Y-93890162D01*
X65456963Y-93818336D01*
X65671248Y-93817741D01*
X65814303Y-93888773D01*
X65886128Y-94031431D01*
X65888311Y-94817142D01*
X65886128Y-94031431D02*
X65957160Y-93888376D01*
X66099818Y-93816551D01*
X66314103Y-93815956D01*
X66457158Y-93886987D01*
X66528983Y-94029645D01*
X66531166Y-94815356D01*
X67245449Y-94813372D02*
X67242671Y-93813376D01*
X67243068Y-93956233D02*
X67314297Y-93884606D01*
X67456956Y-93812781D01*
X67671241Y-93812186D01*
X67814296Y-93883217D01*
X67886121Y-94025875D01*
X67888303Y-94811587D01*
X67886121Y-94025875D02*
X67957152Y-93882820D01*
X68099810Y-93810995D01*
X68314095Y-93810400D01*
X68457150Y-93881431D01*
X68528975Y-94024090D01*
X68531158Y-94809801D01*
X80380607Y-91998304D02*
X44380607Y-92098304D01*
X80366162Y-86797928D02*
X80382236Y-92584722D01*
X44366162Y-86897928D02*
X44382236Y-92684722D01*
X44380607Y-92098304D02*
X45505477Y-91508756D01*
X44380607Y-92098304D02*
X45508735Y-92681593D01*
X80380607Y-91998304D02*
X79252479Y-91415015D01*
X80380607Y-91998304D02*
X79255737Y-92587852D01*
X69266162Y-51276499D02*
X69266162Y-52276499D01*
X68909019Y-50705070D02*
X68551876Y-51776499D01*
X69480447Y-51776499D01*
X70766162Y-50776499D02*
X70051876Y-50776499D01*
X69980447Y-51490785D01*
X70051876Y-51419356D01*
X70194733Y-51347928D01*
X70551876Y-51347928D01*
X70694733Y-51419356D01*
X70766162Y-51490785D01*
X70837590Y-51633642D01*
X70837590Y-51990785D01*
X70766162Y-52133642D01*
X70694733Y-52205070D01*
X70551876Y-52276499D01*
X70194733Y-52276499D01*
X70051876Y-52205070D01*
X69980447Y-52133642D01*
X71551876Y-52205070D02*
X71551876Y-52276499D01*
X71480447Y-52419356D01*
X71409019Y-52490785D01*
X72480447Y-50776499D02*
X72623304Y-50776499D01*
X72766162Y-50847928D01*
X72837590Y-50919356D01*
X72909019Y-51062213D01*
X72980447Y-51347928D01*
X72980447Y-51705070D01*
X72909019Y-51990785D01*
X72837590Y-52133642D01*
X72766162Y-52205070D01*
X72623304Y-52276499D01*
X72480447Y-52276499D01*
X72337590Y-52205070D01*
X72266162Y-52133642D01*
X72194733Y-51990785D01*
X72123304Y-51705070D01*
X72123304Y-51347928D01*
X72194733Y-51062213D01*
X72266162Y-50919356D01*
X72337590Y-50847928D01*
X72480447Y-50776499D01*
X73909019Y-50776499D02*
X74051876Y-50776499D01*
X74194733Y-50847928D01*
X74266162Y-50919356D01*
X74337590Y-51062213D01*
X74409019Y-51347928D01*
X74409019Y-51705070D01*
X74337590Y-51990785D01*
X74266162Y-52133642D01*
X74194733Y-52205070D01*
X74051876Y-52276499D01*
X73909019Y-52276499D01*
X73766162Y-52205070D01*
X73694733Y-52133642D01*
X73623304Y-51990785D01*
X73551876Y-51705070D01*
X73551876Y-51347928D01*
X73623304Y-51062213D01*
X73694733Y-50919356D01*
X73766162Y-50847928D01*
X73909019Y-50776499D01*
X75337590Y-50776499D02*
X75480447Y-50776499D01*
X75623304Y-50847928D01*
X75694733Y-50919356D01*
X75766162Y-51062213D01*
X75837590Y-51347928D01*
X75837590Y-51705070D01*
X75766162Y-51990785D01*
X75694733Y-52133642D01*
X75623304Y-52205070D01*
X75480447Y-52276499D01*
X75337590Y-52276499D01*
X75194733Y-52205070D01*
X75123304Y-52133642D01*
X75051876Y-51990785D01*
X74980447Y-51705070D01*
X74980447Y-51347928D01*
X75051876Y-51062213D01*
X75123304Y-50919356D01*
X75194733Y-50847928D01*
X75337590Y-50776499D01*
X77623304Y-52276499D02*
X77623304Y-51276499D01*
X77623304Y-51419356D02*
X77694733Y-51347928D01*
X77837590Y-51276499D01*
X78051876Y-51276499D01*
X78194733Y-51347928D01*
X78266162Y-51490785D01*
X78266162Y-52276499D01*
X78266162Y-51490785D02*
X78337590Y-51347928D01*
X78480447Y-51276499D01*
X78694733Y-51276499D01*
X78837590Y-51347928D01*
X78909019Y-51490785D01*
X78909019Y-52276499D01*
X79623304Y-52276499D02*
X79623304Y-51276499D01*
X79623304Y-51419356D02*
X79694733Y-51347928D01*
X79837590Y-51276499D01*
X80051876Y-51276499D01*
X80194733Y-51347928D01*
X80266162Y-51490785D01*
X80266162Y-52276499D01*
X80266162Y-51490785D02*
X80337590Y-51347928D01*
X80480447Y-51276499D01*
X80694733Y-51276499D01*
X80837590Y-51347928D01*
X80909019Y-51490785D01*
X80909019Y-52276499D01*
X52266162Y-53697928D02*
X97266162Y-53697928D01*
X52266162Y-59697928D02*
X52266162Y-53111507D01*
X97266162Y-59697928D02*
X97266162Y-53111507D01*
X97266162Y-53697928D02*
X96139658Y-54284349D01*
X97266162Y-53697928D02*
X96139658Y-53111507D01*
X52266162Y-53697928D02*
X53392666Y-54284349D01*
X52266162Y-53697928D02*
X53392666Y-53111507D01*
X62980447Y-105876499D02*
X63909019Y-105876499D01*
X63409019Y-106447928D01*
X63623304Y-106447928D01*
X63766162Y-106519356D01*
X63837590Y-106590785D01*
X63909019Y-106733642D01*
X63909019Y-107090785D01*
X63837590Y-107233642D01*
X63766162Y-107305070D01*
X63623304Y-107376499D01*
X63194733Y-107376499D01*
X63051876Y-107305070D01*
X62980447Y-107233642D01*
X65266162Y-105876499D02*
X64551876Y-105876499D01*
X64480447Y-106590785D01*
X64551876Y-106519356D01*
X64694733Y-106447928D01*
X65051876Y-106447928D01*
X65194733Y-106519356D01*
X65266162Y-106590785D01*
X65337590Y-106733642D01*
X65337590Y-107090785D01*
X65266162Y-107233642D01*
X65194733Y-107305070D01*
X65051876Y-107376499D01*
X64694733Y-107376499D01*
X64551876Y-107305070D01*
X64480447Y-107233642D01*
X66051876Y-107305070D02*
X66051876Y-107376499D01*
X65980447Y-107519356D01*
X65909019Y-107590785D01*
X66980447Y-105876499D02*
X67123304Y-105876499D01*
X67266162Y-105947928D01*
X67337590Y-106019356D01*
X67409019Y-106162213D01*
X67480447Y-106447928D01*
X67480447Y-106805070D01*
X67409019Y-107090785D01*
X67337590Y-107233642D01*
X67266162Y-107305070D01*
X67123304Y-107376499D01*
X66980447Y-107376499D01*
X66837590Y-107305070D01*
X66766162Y-107233642D01*
X66694733Y-107090785D01*
X66623304Y-106805070D01*
X66623304Y-106447928D01*
X66694733Y-106162213D01*
X66766162Y-106019356D01*
X66837590Y-105947928D01*
X66980447Y-105876499D01*
X68409019Y-105876499D02*
X68551876Y-105876499D01*
X68694733Y-105947928D01*
X68766162Y-106019356D01*
X68837590Y-106162213D01*
X68909019Y-106447928D01*
X68909019Y-106805070D01*
X68837590Y-107090785D01*
X68766162Y-107233642D01*
X68694733Y-107305070D01*
X68551876Y-107376499D01*
X68409019Y-107376499D01*
X68266162Y-107305070D01*
X68194733Y-107233642D01*
X68123304Y-107090785D01*
X68051876Y-106805070D01*
X68051876Y-106447928D01*
X68123304Y-106162213D01*
X68194733Y-106019356D01*
X68266162Y-105947928D01*
X68409019Y-105876499D01*
X69837590Y-105876499D02*
X69980447Y-105876499D01*
X70123304Y-105947928D01*
X70194733Y-106019356D01*
X70266162Y-106162213D01*
X70337590Y-106447928D01*
X70337590Y-106805070D01*
X70266162Y-107090785D01*
X70194733Y-107233642D01*
X70123304Y-107305070D01*
X69980447Y-107376499D01*
X69837590Y-107376499D01*
X69694733Y-107305070D01*
X69623304Y-107233642D01*
X69551876Y-107090785D01*
X69480447Y-106805070D01*
X69480447Y-106447928D01*
X69551876Y-106162213D01*
X69623304Y-106019356D01*
X69694733Y-105947928D01*
X69837590Y-105876499D01*
X72123304Y-107376499D02*
X72123304Y-106376499D01*
X72123304Y-106519356D02*
X72194733Y-106447928D01*
X72337590Y-106376499D01*
X72551876Y-106376499D01*
X72694733Y-106447928D01*
X72766162Y-106590785D01*
X72766162Y-107376499D01*
X72766162Y-106590785D02*
X72837590Y-106447928D01*
X72980447Y-106376499D01*
X73194733Y-106376499D01*
X73337590Y-106447928D01*
X73409019Y-106590785D01*
X73409019Y-107376499D01*
X74123304Y-107376499D02*
X74123304Y-106376499D01*
X74123304Y-106519356D02*
X74194733Y-106447928D01*
X74337590Y-106376499D01*
X74551876Y-106376499D01*
X74694733Y-106447928D01*
X74766162Y-106590785D01*
X74766162Y-107376499D01*
X74766162Y-106590785D02*
X74837590Y-106447928D01*
X74980447Y-106376499D01*
X75194733Y-106376499D01*
X75337590Y-106447928D01*
X75409019Y-106590785D01*
X75409019Y-107376499D01*
X86766162Y-104597928D02*
X51766162Y-104597928D01*
X86766162Y-96597928D02*
X86766162Y-105184349D01*
X51766162Y-96597928D02*
X51766162Y-105184349D01*
X51766162Y-104597928D02*
X52892666Y-104011507D01*
X51766162Y-104597928D02*
X52892666Y-105184349D01*
X86766162Y-104597928D02*
X85639658Y-104011507D01*
X86766162Y-104597928D02*
X85639658Y-105184349D01*
X41987590Y-71240785D02*
X41987590Y-70383642D01*
X41987590Y-70812213D02*
X43487590Y-70812213D01*
X43273304Y-70669356D01*
X43130447Y-70526499D01*
X43059019Y-70383642D01*
X43487590Y-72526499D02*
X43487590Y-72240785D01*
X43416162Y-72097928D01*
X43344733Y-72026499D01*
X43130447Y-71883642D01*
X42844733Y-71812213D01*
X42273304Y-71812213D01*
X42130447Y-71883642D01*
X42059019Y-71955070D01*
X41987590Y-72097928D01*
X41987590Y-72383642D01*
X42059019Y-72526499D01*
X42130447Y-72597928D01*
X42273304Y-72669356D01*
X42630447Y-72669356D01*
X42773304Y-72597928D01*
X42844733Y-72526499D01*
X42916162Y-72383642D01*
X42916162Y-72097928D01*
X42844733Y-71955070D01*
X42773304Y-71883642D01*
X42630447Y-71812213D01*
X42059019Y-73383642D02*
X41987590Y-73383642D01*
X41844733Y-73312213D01*
X41773304Y-73240785D01*
X43487590Y-74312213D02*
X43487590Y-74455070D01*
X43416162Y-74597928D01*
X43344733Y-74669356D01*
X43201876Y-74740785D01*
X42916162Y-74812213D01*
X42559019Y-74812213D01*
X42273304Y-74740785D01*
X42130447Y-74669356D01*
X42059019Y-74597928D01*
X41987590Y-74455070D01*
X41987590Y-74312213D01*
X42059019Y-74169356D01*
X42130447Y-74097928D01*
X42273304Y-74026499D01*
X42559019Y-73955070D01*
X42916162Y-73955070D01*
X43201876Y-74026499D01*
X43344733Y-74097928D01*
X43416162Y-74169356D01*
X43487590Y-74312213D01*
X43487590Y-75740785D02*
X43487590Y-75883642D01*
X43416162Y-76026499D01*
X43344733Y-76097928D01*
X43201876Y-76169356D01*
X42916162Y-76240785D01*
X42559019Y-76240785D01*
X42273304Y-76169356D01*
X42130447Y-76097928D01*
X42059019Y-76026499D01*
X41987590Y-75883642D01*
X41987590Y-75740785D01*
X42059019Y-75597928D01*
X42130447Y-75526499D01*
X42273304Y-75455070D01*
X42559019Y-75383642D01*
X42916162Y-75383642D01*
X43201876Y-75455070D01*
X43344733Y-75526499D01*
X43416162Y-75597928D01*
X43487590Y-75740785D01*
X43487590Y-77169356D02*
X43487590Y-77312213D01*
X43416162Y-77455070D01*
X43344733Y-77526499D01*
X43201876Y-77597928D01*
X42916162Y-77669356D01*
X42559019Y-77669356D01*
X42273304Y-77597928D01*
X42130447Y-77526499D01*
X42059019Y-77455070D01*
X41987590Y-77312213D01*
X41987590Y-77169356D01*
X42059019Y-77026499D01*
X42130447Y-76955070D01*
X42273304Y-76883642D01*
X42559019Y-76812213D01*
X42916162Y-76812213D01*
X43201876Y-76883642D01*
X43344733Y-76955070D01*
X43416162Y-77026499D01*
X43487590Y-77169356D01*
X41987590Y-79455070D02*
X42987590Y-79455070D01*
X42844733Y-79455070D02*
X42916162Y-79526499D01*
X42987590Y-79669356D01*
X42987590Y-79883642D01*
X42916162Y-80026499D01*
X42773304Y-80097928D01*
X41987590Y-80097928D01*
X42773304Y-80097928D02*
X42916162Y-80169356D01*
X42987590Y-80312213D01*
X42987590Y-80526499D01*
X42916162Y-80669356D01*
X42773304Y-80740785D01*
X41987590Y-80740785D01*
X41987590Y-81455070D02*
X42987590Y-81455070D01*
X42844733Y-81455070D02*
X42916162Y-81526499D01*
X42987590Y-81669356D01*
X42987590Y-81883642D01*
X42916162Y-82026499D01*
X42773304Y-82097928D01*
X41987590Y-82097928D01*
X42773304Y-82097928D02*
X42916162Y-82169356D01*
X42987590Y-82312213D01*
X42987590Y-82526499D01*
X42916162Y-82669356D01*
X42773304Y-82740785D01*
X41987590Y-82740785D01*
X44766162Y-68597928D02*
X44766162Y-84597928D01*
X50766162Y-68597928D02*
X44179741Y-68597928D01*
X50766162Y-84597928D02*
X44179741Y-84597928D01*
X44766162Y-84597928D02*
X44179741Y-83471424D01*
X44766162Y-84597928D02*
X45352583Y-83471424D01*
X44766162Y-68597928D02*
X44179741Y-69724432D01*
X44766162Y-68597928D02*
X45352583Y-69724432D01*
M02*
